<?xml version="1.0" encoding="UTF-8" standalone="no"?><!DOCTYPE svg PUBLIC "-//W3C//DTD SVG 1.1//EN" "http://www.w3.org/Graphics/SVG/1.1/DTD/svg11.dtd"><svg width="100%" height="100%" viewBox="0 0 50 50" version="1.1" xmlns="http://www.w3.org/2000/svg" xmlns:xlink="http://www.w3.org/1999/xlink" xml:space="preserve" xmlns:serif="http://www.serif.com/" style="fill-rule:evenodd;clip-rule:evenodd;stroke-linejoin:round;stroke-miterlimit:2;"><path d="M12.16,41.48c-0.028,-0 -0.055,-0.001 -0.084,-0.004c-0.7,-0.065 -1.402,-0.176 -2.085,-0.328c-0.485,-0.107 -0.791,-0.588 -0.683,-1.073c0.108,-0.485 0.59,-0.791 1.074,-0.683c0.609,0.135 1.235,0.233 1.86,0.292c0.495,0.046 0.86,0.484 0.814,0.979c-0.044,0.466 -0.437,0.817 -0.896,0.817Zm2.992,-0.002c-0.459,-0 -0.851,-0.35 -0.895,-0.817c-0.046,-0.494 0.318,-0.933 0.812,-0.979c0.624,-0.058 1.249,-0.157 1.86,-0.293c0.485,-0.107 0.967,0.196 1.074,0.682c0.108,0.485 -0.197,0.966 -0.682,1.075c-0.684,0.152 -1.385,0.263 -2.084,0.328c-0.028,0.003 -0.056,0.004 -0.085,0.004Zm-11.851,-3.921l0,2.482c0,0.497 -0.403,0.9 -0.9,0.9c-0.498,-0 -0.901,-0.403 -0.901,-0.9l0,-4.051c0,-0.439 0.318,-0.814 0.751,-0.887l3.779,-0.638c0.484,-0.083 0.955,0.247 1.038,0.737c0.082,0.49 -0.249,0.955 -0.739,1.037l-2.301,0.389c0.012,0.227 -0.061,0.46 -0.224,0.644c-0.137,0.154 -0.315,0.251 -0.503,0.287Zm4.038,2.692c-0.12,-0 -0.241,-0.024 -0.357,-0.075c-0.642,-0.277 -1.275,-0.6 -1.88,-0.958c-0.428,-0.253 -0.57,-0.805 -0.317,-1.233c0.253,-0.427 0.805,-0.57 1.233,-0.316c0.541,0.319 1.105,0.607 1.678,0.855c0.456,0.197 0.666,0.727 0.469,1.184c-0.147,0.339 -0.478,0.543 -0.826,0.543Zm12.633,-0.006c-0.348,-0 -0.679,-0.203 -0.825,-0.542c-0.199,-0.456 0.01,-0.987 0.466,-1.184c0.574,-0.249 1.139,-0.537 1.678,-0.857c0.429,-0.253 0.98,-0.113 1.234,0.316c0.252,0.427 0.111,0.979 -0.316,1.233c-0.604,0.357 -1.236,0.68 -1.879,0.959c-0.117,0.051 -0.238,0.075 -0.358,0.075Zm4.198,-2.67c-0.25,-0 -0.497,-0.103 -0.677,-0.305c-0.327,-0.373 -0.291,-0.942 0.082,-1.27c0.236,-0.208 0.465,-0.424 0.686,-0.645c0.352,-0.352 0.922,-0.352 1.274,-0c0.351,0.351 0.351,0.921 -0,1.272c-0.249,0.249 -0.507,0.49 -0.77,0.723c-0.171,0.151 -0.384,0.225 -0.595,0.225Zm-9.118,-1.827l-3.061,-0c-0.497,-0 -0.9,-0.403 -0.9,-0.9l-0,-1.706c-0.624,-0.18 -1.223,-0.428 -1.791,-0.742l-1.206,1.207c-0.352,0.35 -0.922,0.351 -1.274,-0.001l-2.164,-2.164c-0.169,-0.168 -0.263,-0.397 -0.263,-0.636c-0,-0.239 0.095,-0.468 0.263,-0.637l1.207,-1.206c-0.313,-0.568 -0.561,-1.167 -0.742,-1.791l-1.706,-0c-0.497,-0 -0.9,-0.403 -0.9,-0.9l-0,-3.06c-0,-0.498 0.403,-0.9 0.9,-0.9l1.706,-0c0.18,-0.625 0.429,-1.224 0.742,-1.791l-1.207,-1.207c-0.351,-0.352 -0.351,-0.922 -0,-1.273l2.164,-2.164c0.352,-0.352 0.922,-0.352 1.274,-0l1.206,1.207c0.568,-0.314 1.167,-0.562 1.791,-0.742l-0,-1.707c-0,-0.497 0.403,-0.9 0.9,-0.9l3.061,-0c0.497,-0 0.9,0.403 0.9,0.9l-0,1.707c0.623,0.18 1.222,0.428 1.79,0.742l1.206,-1.207c0.352,-0.352 0.921,-0.351 1.273,-0l2.165,2.164c0.352,0.351 0.352,0.921 -0,1.273l-1.206,1.207c0.314,0.568 0.561,1.167 0.741,1.791l1.706,-0c0.498,-0 0.901,0.402 0.901,0.9l-0,3.06c-0,0.497 -0.403,0.9 -0.901,0.9l-1.706,-0c-0.18,0.624 -0.427,1.223 -0.741,1.791l1.206,1.206c0.168,0.169 0.265,0.398 0.265,0.637c-0,0.239 -0.097,0.468 -0.265,0.636l-2.164,2.165c-0.352,0.35 -0.922,0.351 -1.274,-0.001l-1.206,-1.206c-0.568,0.314 -1.167,0.562 -1.79,0.742l-0,1.706c-0,0.497 -0.403,0.9 -0.9,0.9Zm23.38,-0.115c-0.126,-0 -0.252,-0.026 -0.369,-0.079c-0.218,-0.098 -0.388,-0.279 -0.473,-0.502l-0.605,-1.595c-0.647,0.055 -1.295,0.034 -1.938,-0.057l-0.7,1.556c-0.203,0.452 -0.734,0.655 -1.19,0.451l-2.791,-1.255c-0.453,-0.203 -0.655,-0.736 -0.452,-1.189l0.7,-1.557c-0.495,-0.42 -0.94,-0.891 -1.33,-1.411l-1.594,0.606c-0.466,0.174 -0.986,-0.057 -1.162,-0.522l-1.086,-2.861c-0.084,-0.224 -0.078,-0.471 0.02,-0.689c0.099,-0.218 0.277,-0.388 0.501,-0.472l1.597,-0.606c-0.054,-0.647 -0.034,-1.295 0.058,-1.938l-1.557,-0.699c-0.219,-0.098 -0.388,-0.279 -0.473,-0.502c-0.084,-0.223 -0.078,-0.471 0.022,-0.688l1.254,-2.792c0.205,-0.453 0.735,-0.655 1.19,-0.452l1.557,0.701c0.419,-0.496 0.891,-0.94 1.411,-1.33l-0.606,-1.595c-0.085,-0.223 -0.078,-0.471 0.02,-0.689c0.098,-0.217 0.278,-0.387 0.502,-0.472l2.861,-1.086c0.464,-0.177 0.984,0.056 1.16,0.521l0.607,1.596c0.646,-0.054 1.294,-0.034 1.937,0.058l0.699,-1.556c0.204,-0.454 0.735,-0.656 1.191,-0.452l2.792,1.255c0.453,0.204 0.655,0.737 0.451,1.19l-0.699,1.556c0.495,0.42 0.939,0.892 1.329,1.411l1.595,-0.606c0.222,-0.085 0.471,-0.078 0.689,0.021c0.218,0.098 0.388,0.278 0.473,0.501l1.086,2.862c0.175,0.465 -0.058,0.984 -0.523,1.16l-1.596,0.606c0.054,0.648 0.035,1.295 -0.057,1.938l1.556,0.7c0.454,0.203 0.656,0.736 0.453,1.189l-1.255,2.792c-0.204,0.453 -0.736,0.656 -1.191,0.452l-1.556,-0.7c-0.42,0.495 -0.892,0.939 -1.411,1.329l0.606,1.595c0.176,0.465 -0.058,0.985 -0.523,1.161l-2.861,1.086c-0.102,0.039 -0.211,0.059 -0.319,0.059Zm-25.54,-1.685l1.26,-0l0,-1.513c0,-0.43 0.303,-0.8 0.725,-0.883c0.898,-0.178 1.739,-0.527 2.502,-1.037c0.356,-0.238 0.834,-0.192 1.137,0.112l1.069,1.07l0.892,-0.891l-1.071,-1.07c-0.303,-0.304 -0.35,-0.781 -0.111,-1.138c0.51,-0.761 0.858,-1.602 1.036,-2.5c0.083,-0.422 0.453,-0.726 0.883,-0.726l1.514,-0l0,-1.261l-1.514,-0c-0.43,-0 -0.8,-0.303 -0.883,-0.725c-0.178,-0.899 -0.526,-1.74 -1.036,-2.501c-0.239,-0.357 -0.192,-0.833 0.111,-1.137l1.072,-1.071l-0.893,-0.891l-1.069,1.071c-0.303,0.304 -0.78,0.351 -1.138,0.111c-0.761,-0.509 -1.602,-0.858 -2.501,-1.036c-0.422,-0.084 -0.725,-0.453 -0.725,-0.883l0,-1.514l-1.26,-0l0,1.514c0,0.43 -0.304,0.799 -0.726,0.883c-0.899,0.178 -1.741,0.527 -2.501,1.036c-0.355,0.24 -0.834,0.194 -1.138,-0.111l-1.07,-1.071l-0.891,0.891l1.071,1.071c0.304,0.304 0.35,0.78 0.111,1.137c-0.51,0.761 -0.858,1.602 -1.037,2.502c-0.084,0.421 -0.453,0.724 -0.883,0.724l-1.512,-0l0,1.261l1.512,-0c0.43,-0 0.799,0.303 0.883,0.725c0.179,0.9 0.527,1.741 1.037,2.501c0.239,0.357 0.193,0.834 -0.111,1.138l-1.071,1.07l0.891,0.891l1.07,-1.07c0.306,-0.304 0.784,-0.35 1.138,-0.111c0.761,0.509 1.603,0.858 2.501,1.036c0.422,0.083 0.726,0.453 0.726,0.883l0,1.513Zm24.684,-2.371c0.368,-0 0.706,0.226 0.841,0.58l0.537,1.415l1.178,-0.447l-0.537,-1.415c-0.152,-0.402 0.001,-0.855 0.365,-1.083c0.776,-0.485 1.44,-1.11 1.97,-1.856c0.248,-0.35 0.71,-0.477 1.102,-0.3l1.381,0.621l0.518,-1.15l-1.381,-0.621c-0.392,-0.176 -0.605,-0.605 -0.508,-1.023c0.206,-0.892 0.234,-1.802 0.08,-2.706c-0.071,-0.423 0.166,-0.839 0.569,-0.991l1.415,-0.538l-0.448,-1.178l-1.415,0.537c-0.4,0.154 -0.854,-0.001 -1.083,-0.365c-0.484,-0.776 -1.109,-1.439 -1.856,-1.97c-0.351,-0.249 -0.476,-0.711 -0.299,-1.103l0.62,-1.38l-1.149,-0.517l-0.62,1.38c-0.177,0.392 -0.6,0.605 -1.025,0.508c-0.892,-0.206 -1.802,-0.234 -2.706,-0.081c-0.419,0.074 -0.839,-0.166 -0.99,-0.568l-0.538,-1.415l-1.179,0.447l0.537,1.415c0.154,0.402 0,0.856 -0.364,1.083c-0.777,0.486 -1.44,1.11 -1.971,1.856c-0.25,0.352 -0.714,0.476 -1.102,0.3l-1.382,-0.621l-0.516,1.15l1.381,0.621c0.392,0.176 0.605,0.605 0.508,1.023c-0.207,0.894 -0.234,1.804 -0.081,2.707c0.071,0.423 -0.167,0.839 -0.568,0.991l-1.416,0.537l0.448,1.179l1.415,-0.537c0.403,-0.152 0.855,-0 1.082,0.364c0.486,0.777 1.111,1.44 1.857,1.971c0.351,0.248 0.476,0.71 0.3,1.102l-0.621,1.381l1.15,0.517l0.621,-1.381c0.176,-0.392 0.6,-0.606 1.024,-0.508c0.892,0.207 1.804,0.234 2.705,0.081c0.051,-0.008 0.102,-0.012 0.151,-0.012Zm-24.054,-1.812c-1.342,-0 -2.604,-0.522 -3.553,-1.471c-0.948,-0.949 -1.471,-2.21 -1.471,-3.552c0,-1.342 0.523,-2.604 1.471,-3.552c0.949,-0.949 2.211,-1.472 3.553,-1.472c1.34,-0 2.602,0.523 3.551,1.472c0.949,0.948 1.471,2.21 1.471,3.552c0,1.342 -0.522,2.603 -1.471,3.552c-0.949,0.949 -2.211,1.471 -3.551,1.471Zm22.752,-1.376c-0.508,-0 -1.016,-0.108 -1.494,-0.323c-0.887,-0.399 -1.567,-1.12 -1.913,-2.031c-0.345,-0.91 -0.316,-1.9 0.084,-2.788c0.825,-1.833 2.988,-2.655 4.819,-1.83c1.833,0.825 2.654,2.987 1.829,4.819c-0.399,0.888 -1.119,1.568 -2.03,1.914c-0.42,0.159 -0.858,0.239 -1.295,0.239Zm-22.753,-6.869c-0.826,-0 -1.651,0.314 -2.279,0.942c-0.609,0.609 -0.944,1.418 -0.944,2.28c0,0.861 0.335,1.67 0.944,2.279c1.256,1.257 3.302,1.255 4.558,-0c0.609,-0.609 0.944,-1.418 0.944,-2.279c0,-0.862 -0.335,-1.671 -0.944,-2.279c-0.628,-0.628 -1.453,-0.943 -2.279,-0.943Zm22.756,1.377c-0.704,-0 -1.377,0.405 -1.685,1.088c-0.202,0.45 -0.217,0.951 -0.042,1.412c0.175,0.46 0.519,0.825 0.969,1.027c0.451,0.204 0.951,0.216 1.411,0.043c0.461,-0.175 0.826,-0.519 1.027,-0.968c0.203,-0.451 0.218,-0.952 0.043,-1.412c-0.175,-0.461 -0.519,-0.826 -0.969,-1.028c-0.245,-0.11 -0.501,-0.162 -0.754,-0.162Zm-12.151,-9.399l0,-4.055c0,-0.498 0.402,-0.9 0.901,-0.9c0.496,-0 0.9,0.402 0.9,0.9l0,2.481c0.188,0.037 0.366,0.133 0.502,0.288c0.163,0.184 0.237,0.416 0.225,0.644l2.301,0.388c0.49,0.083 0.821,0.547 0.739,1.037c-0.075,0.44 -0.456,0.75 -0.887,0.75c-0.05,-0 -0.101,-0.004 -0.151,-0.012l-3.779,-0.639c-0.431,-0.072 -0.749,-0.444 -0.751,-0.882Zm23.399,0.895c-0.231,-0 -0.461,-0.088 -0.637,-0.264c-0.223,-0.223 -0.451,-0.438 -0.688,-0.646c-0.373,-0.329 -0.408,-0.898 -0.079,-1.271c0.329,-0.373 0.9,-0.407 1.271,-0.079c0.263,0.234 0.521,0.475 0.769,0.724c0.352,0.352 0.351,0.922 -0.001,1.273c-0.175,0.175 -0.405,0.263 -0.635,0.263Zm-3.15,-2.446c-0.156,-0 -0.314,-0.04 -0.458,-0.126c-0.539,-0.319 -1.102,-0.607 -1.677,-0.856c-0.456,-0.197 -0.666,-0.728 -0.468,-1.184c0.198,-0.456 0.731,-0.665 1.183,-0.467c0.644,0.278 1.277,0.601 1.88,0.96c0.428,0.253 0.568,0.805 0.316,1.233c-0.169,0.283 -0.468,0.44 -0.776,0.44Zm-16.189,-0.007c-0.309,-0 -0.608,-0.158 -0.776,-0.442c-0.253,-0.428 -0.111,-0.979 0.316,-1.232c0.606,-0.359 1.239,-0.681 1.881,-0.959c0.453,-0.197 0.985,0.012 1.183,0.469c0.197,0.457 -0.013,0.986 -0.469,1.184c-0.573,0.247 -1.137,0.535 -1.678,0.855c-0.144,0.085 -0.302,0.125 -0.457,0.125Zm11.567,-1.826c-0.065,-0 -0.131,-0.007 -0.197,-0.022c-0.611,-0.136 -1.236,-0.234 -1.86,-0.293c-0.494,-0.045 -0.858,-0.484 -0.812,-0.979c0.047,-0.496 0.469,-0.865 0.98,-0.813c0.699,0.065 1.4,0.176 2.084,0.329c0.485,0.108 0.79,0.589 0.682,1.074c-0.093,0.419 -0.465,0.704 -0.877,0.704Zm-6.941,-0.002c-0.412,-0 -0.785,-0.286 -0.878,-0.705c-0.108,-0.485 0.198,-0.966 0.683,-1.074c0.683,-0.152 1.385,-0.262 2.085,-0.327c0.495,-0.046 0.933,0.318 0.98,0.812c0.046,0.496 -0.319,0.934 -0.814,0.98c-0.625,0.059 -1.251,0.157 -1.86,0.292c-0.065,0.015 -0.132,0.022 -0.196,0.022Z" style="fill:#fff;fill-rule:nonzero;"/></svg>