<?xml version="1.0" encoding="UTF-8" standalone="no"?><!DOCTYPE svg PUBLIC "-//W3C//DTD SVG 1.1//EN" "http://www.w3.org/Graphics/SVG/1.1/DTD/svg11.dtd"><svg width="100%" height="100%" viewBox="0 0 51 51" version="1.1" xmlns="http://www.w3.org/2000/svg" xmlns:xlink="http://www.w3.org/1999/xlink" xml:space="preserve" xmlns:serif="http://www.serif.com/" style="fill-rule:evenodd;clip-rule:evenodd;stroke-linejoin:round;stroke-miterlimit:2;"><path d="M44.958,45.935l-20.52,0c-0.497,0 -0.9,-0.403 -0.9,-0.9c0,-0.498 0.403,-0.901 0.9,-0.901l20.52,0c2.335,0 4.234,-1.899 4.234,-4.234c0,-2.335 -1.899,-4.235 -4.234,-4.235l-20.52,0c-0.497,0 -0.9,-0.403 -0.9,-0.9c0,-0.497 0.403,-0.9 0.9,-0.9l20.52,0c3.327,0 6.035,2.708 6.035,6.035c0,3.327 -2.708,6.035 -6.035,6.035Zm-0.199,-3.146c-1.593,0 -2.89,-1.296 -2.89,-2.889c0,-1.593 1.297,-2.89 2.89,-2.89c1.593,0 2.89,1.297 2.89,2.89c0,1.593 -1.297,2.889 -2.89,2.889Zm0,-3.978c-0.601,0 -1.089,0.488 -1.089,1.089c0,0.6 0.488,1.089 1.089,1.089c0.601,0 1.089,-0.489 1.089,-1.089c0,-0.601 -0.488,-1.089 -1.089,-1.089Zm-4.583,1.989l-1,0c-0.497,0 -0.9,-0.403 -0.9,-0.9c0,-0.497 0.403,-0.901 0.9,-0.901l1,0c0.497,0 0.901,0.404 0.901,0.901c0,0.497 -0.404,0.9 -0.901,0.9Zm-9.455,0l-2.113,0c-0.497,0 -0.9,-0.403 -0.9,-0.9c-0,-0.497 0.403,-0.901 0.9,-0.901l2.113,0c0.497,0 0.901,0.404 0.901,0.901c-0,0.497 -0.404,0.9 -0.901,0.9Zm5.285,0l-2.114,0c-0.497,0 -0.9,-0.403 -0.9,-0.9c0,-0.497 0.403,-0.901 0.9,-0.901l2.114,0c0.497,0 0.9,0.404 0.9,0.901c0,0.497 -0.403,0.9 -0.9,0.9Z" style="fill:#fff;fill-rule:nonzero;"/><path d="M25.339,11.153l0,19.394l0.099,-0c0.497,-0 0.901,0.404 0.901,0.901c-0,0.497 -0.404,0.9 -0.901,0.9l-0.099,-0l0,6.651l0.099,-0c0.497,-0 0.901,0.404 0.901,0.901c-0,0.497 -0.404,0.9 -0.901,0.9l-0.099,-0l0,4.235c0,0.495 -0.401,0.897 -0.895,0.9l-23.544,-0c-0.497,-0 -0.9,-0.403 -0.9,-0.9l0,-36c0,-2.5 2.034,-4.535 4.534,-4.535l16.27,-0c2.5,-0 4.535,2.035 4.535,4.535l0,0.317l10.799,-0c0.379,-1.153 1.467,-1.989 2.745,-1.989c1.594,-0 2.891,1.297 2.891,2.889c0,1.279 -0.836,2.367 -1.99,2.746l0,8.281l2.234,2.233c0.274,0.274 0.335,0.681 0.182,1.013l-1.234,3.035c-0.142,0.35 -0.478,0.561 -0.834,0.561c-0.113,-0 -0.227,-0.021 -0.338,-0.066c-0.461,-0.187 -0.682,-0.713 -0.496,-1.173l1.025,-2.518l-1.439,-1.439l-1.439,1.439l1.024,2.518c0.187,0.46 -0.034,0.986 -0.495,1.173c-0.111,0.045 -0.225,0.066 -0.339,0.066c-0.355,-0 -0.691,-0.211 -0.834,-0.561l-1.26,-3.099c-0.01,-0.029 -0.019,-0.058 -0.027,-0.087c-0.011,-0.046 -0.019,-0.092 -0.024,-0.138c-0.025,-0.259 0.062,-0.526 0.26,-0.724l2.233,-2.233l0,-8.281c-0.87,-0.286 -1.559,-0.975 -1.845,-1.845l-10.799,-0Zm-23.539,31.636l0,1.345l21.738,-0l0,-1.345l-21.738,-0Zm21.738,-1.8l0,-31.954c0,-1.508 -1.226,-2.734 -2.734,-2.734l-16.27,-0c-1.508,-0 -2.734,1.226 -2.734,2.734l0,31.954l21.738,-0Zm21.42,-8.641l-1,-0c-0.497,-0 -0.901,-0.403 -0.901,-0.9c0,-0.497 0.404,-0.901 0.901,-0.901l1,-0c0.497,-0 0.9,0.404 0.9,0.901c0,0.497 -0.403,0.9 -0.9,0.9Zm-14.375,-0l-2.058,-0c-0.497,-0 -0.9,-0.403 -0.9,-0.9c0,-0.497 0.403,-0.901 0.9,-0.901l2.058,-0c0.497,-0 0.9,0.404 0.9,0.901c0,0.497 -0.403,0.9 -0.9,0.9Zm5.144,-0l-2.057,-0c-0.497,-0 -0.901,-0.403 -0.901,-0.9c0,-0.497 0.404,-0.901 0.901,-0.901l2.057,-0c0.497,-0 0.901,0.404 0.901,0.901c0,0.497 -0.404,0.9 -0.901,0.9Zm5.145,-0l-2.058,-0c-0.497,-0 -0.9,-0.403 -0.9,-0.9c0,-0.497 0.403,-0.901 0.9,-0.901l2.058,-0c0.497,-0 0.9,0.404 0.9,0.901c0,0.497 -0.403,0.9 -0.9,0.9Zm-19.91,-3.661l-16.586,-0c-0.497,-0 -0.901,-0.403 -0.901,-0.901l0,-15.829c0,-0.497 0.404,-0.9 0.901,-0.9l16.586,-0c0.497,-0 0.9,0.403 0.9,0.9l0,15.829c0,0.498 -0.403,0.901 -0.9,0.901Zm-15.686,-1.801l14.785,-0l0,-14.028l-14.785,-0l0,14.028Zm8.665,-0.618l-2.545,-0c-0.497,-0 -0.9,-0.403 -0.9,-0.9l0,-2.133c0,-0.497 0.403,-0.901 0.9,-0.901l2.545,-0c0.497,-0 0.9,0.404 0.9,0.901l0,2.133c0,0.497 -0.403,0.9 -0.9,0.9Zm-4.858,-0l-2.545,-0c-0.497,-0 -0.901,-0.403 -0.901,-0.9l0,-2.133c0,-0.497 0.404,-0.901 0.901,-0.901l2.545,-0c0.497,-0 0.9,0.404 0.9,0.901l0,2.133c0,0.497 -0.403,0.9 -0.9,0.9Zm9.716,-0l-2.544,-0c-0.498,-0 -0.901,-0.403 -0.901,-0.9l0,-2.133c0,-0.497 0.403,-0.901 0.901,-0.901l2.544,-0c0.498,-0 0.901,0.404 0.901,0.901l0,2.133c0,0.497 -0.403,0.9 -0.901,0.9Zm-6.502,-1.801l0.744,-0l0,-0.332l-0.744,-0l0,0.332Zm-4.859,-0l0.744,-0l0,-0.332l-0.744,-0l0,0.332Zm9.717,-0l0.744,-0l0,-0.332l-0.744,-0l0,0.332Zm1.289,-4.302l-0.5,-0c-0.497,-0 -0.9,-0.403 -0.9,-0.9c0,-0.497 0.403,-0.9 0.9,-0.9l0.5,-0c0.497,-0 0.9,0.403 0.9,0.9c0,0.497 -0.403,0.9 -0.9,0.9Zm-10.728,-0l-0.5,-0c-0.497,-0 -0.9,-0.403 -0.9,-0.9c0,-0.497 0.403,-0.9 0.9,-0.9l0.5,-0c0.498,-0 0.901,0.403 0.901,0.9c0,0.497 -0.403,0.9 -0.901,0.9Zm2.79,-0l-0.93,-0c-0.497,-0 -0.901,-0.403 -0.901,-0.9c0,-0.497 0.404,-0.9 0.901,-0.9l0.93,-0c0.497,-0 0.9,0.403 0.9,0.9c0,0.497 -0.403,0.9 -0.9,0.9Zm2.789,-0l-0.93,-0c-0.497,-0 -0.9,-0.403 -0.9,-0.9c0,-0.497 0.403,-0.9 0.9,-0.9l0.93,-0c0.497,-0 0.9,0.403 0.9,0.9c0,0.497 -0.403,0.9 -0.9,0.9Zm2.789,-0l-0.93,-0c-0.497,-0 -0.9,-0.403 -0.9,-0.9c0,-0.497 0.403,-0.9 0.9,-0.9l0.93,-0c0.497,-0 0.9,0.403 0.9,0.9c0,0.497 -0.403,0.9 -0.9,0.9Zm-1.324,-2.916c-0.152,-0 -0.303,-0.006 -0.454,-0.02c-0.916,-0.081 -1.597,-0.388 -2.199,-0.659c-0.614,-0.277 -1.145,-0.515 -1.908,-0.523c-0.012,-0.001 -0.025,-0.001 -0.037,-0.001c-0.81,-0 -1.64,0.264 -2.467,0.782c-0.424,0.264 -0.978,0.137 -1.241,-0.284c-0.264,-0.422 -0.137,-0.976 0.284,-1.241c1.137,-0.713 2.35,-1.059 3.479,-1.057c1.14,0.013 1.931,0.369 2.628,0.682c0.54,0.243 1.007,0.453 1.62,0.508c1.065,0.099 2.212,-0.325 3.439,-1.246c0.4,-0.298 0.963,-0.215 1.261,0.18c0.298,0.399 0.217,0.962 -0.181,1.261c-1.436,1.074 -2.853,1.617 -4.224,1.618Zm24.123,-8.086c-0.6,-0 -1.088,0.489 -1.088,1.089c0,0.601 0.488,1.089 1.088,1.089c0.602,-0 1.09,-0.488 1.09,-1.089c0,-0.6 -0.488,-1.089 -1.09,-1.089Z" style="fill:#fff;fill-rule:nonzero;"/></svg>