<svg id="Ebene_1" data-name="Ebene 1" xmlns="http://www.w3.org/2000/svg" viewBox="0 0 276 276"><defs><style>.cls-1{fill:#008d36;}.cls-2{fill:#ff8647;}</style></defs><path class="cls-1" d="M75.29,120.5a30.33,30.33,0,0,1,2.23-12,26.48,26.48,0,0,1,6-8.89,25.68,25.68,0,0,1,8.84-5.55,29.93,29.93,0,0,1,10.67-1.9,22.52,22.52,0,0,1,9.86,2.11,27.94,27.94,0,0,1,7.37,4.92l-7.23,7.53a20.91,20.91,0,0,0-4.51-3,12.43,12.43,0,0,0-5.31-1.07A13.45,13.45,0,0,0,93,107.34a16,16,0,0,0-3.08,5.47,22,22,0,0,0-1.12,7.28q0,8.35,3.84,12.95a12.71,12.71,0,0,0,10.27,4.6,14,14,0,0,0,6.25-1.33,18.19,18.19,0,0,0,4.82-3.47l7.23,7.36a23.92,23.92,0,0,1-8.35,6,25.75,25.75,0,0,1-10.13,2,31.67,31.67,0,0,1-10.63-1.78,25.15,25.15,0,0,1-8.75-5.26,24.28,24.28,0,0,1-5.89-8.65A31,31,0,0,1,75.29,120.5Z"/><path class="cls-1" d="M149.1,148.15a28.7,28.7,0,0,1-10.76-2,23.34,23.34,0,0,1-8.35-5.59,25.23,25.23,0,0,1-5.4-8.85,34.11,34.11,0,0,1-1.92-11.84,33.74,33.74,0,0,1,1.92-11.79,24.09,24.09,0,0,1,5.4-8.69,23.38,23.38,0,0,1,8.35-5.38,32.05,32.05,0,0,1,21.52,0,23.07,23.07,0,0,1,8.35,5.42,24.44,24.44,0,0,1,5.4,8.73,33.52,33.52,0,0,1,1.92,11.71,34.11,34.11,0,0,1-1.92,11.84,25.23,25.23,0,0,1-5.4,8.85,23.34,23.34,0,0,1-8.35,5.59A28.7,28.7,0,0,1,149.1,148.15Zm0-10.51a11.14,11.14,0,0,0,9.47-4.76c2.32-3.18,3.48-7.49,3.48-13s-1.16-9.62-3.48-12.66a12.12,12.12,0,0,0-18.93,0q-3.49,4.56-3.49,12.66c0,5.47,1.16,9.78,3.49,13A11.11,11.11,0,0,0,149.1,137.64Z"/><path class="cls-2" d="M74.8,156.67h4.56L84.49,165l1.93,3.68h.12c-.1-.89-.21-1.88-.34-3a26.39,26.39,0,0,1-.2-3.11v-5.88h4.23v16.66H85.67L80.54,165l-1.93-3.62h-.12c.1.92.21,1.9.34,3a25.22,25.22,0,0,1,.2,3.07v5.9H74.8Z"/><path class="cls-2" d="M95.63,156.67H108v3.17h-7.88v3.34h6.7v3.15h-6.7v3.83h8.18v3.17H95.63Z"/><path class="cls-2" d="M112.81,156.67h4.47V166a5.17,5.17,0,0,0,.87,3.42,3.24,3.24,0,0,0,2.54,1,3.32,3.32,0,0,0,2.56-1,5,5,0,0,0,.91-3.42v-9.33h4.29v8.94c0,2.8-.66,4.83-2,6.11a8,8,0,0,1-5.78,1.92,8.19,8.19,0,0,1-5.86-1.92c-1.35-1.28-2-3.31-2-6.11Z"/><path class="cls-2" d="M137.59,159.84h-5.4v-3.17h15.27v3.17h-5.4v13.49h-4.47Z"/><path class="cls-2" d="M162.56,173.33l-3.78-6h-2.44v6H151.9V156.67H159a16.18,16.18,0,0,1,2.94.25,7.5,7.5,0,0,1,2.4.86,4.55,4.55,0,0,1,1.63,1.6,4.71,4.71,0,0,1,.6,2.47,4.65,4.65,0,0,1-.95,3,5.59,5.59,0,0,1-2.55,1.78l4.47,6.67Zm-6.22-9h2.29a4.71,4.71,0,0,0,2.67-.62,2.1,2.1,0,0,0,.93-1.86,1.77,1.77,0,0,0-.93-1.71,5.89,5.89,0,0,0-2.67-.48h-2.29Z"/><path class="cls-2" d="M180.79,169.37h-6l-1.2,4h-4.53l6.16-16.66h5.34l6.16,16.66H182Zm-.9-2.94-.46-1.53c-.28-.84-.55-1.72-.81-2.66s-.53-1.84-.79-2.71h-.12c-.24.89-.49,1.79-.74,2.72s-.52,1.81-.8,2.65l-.48,1.53Z"/><path class="cls-2" d="M190.21,156.67h4.44v13.49h7.79v3.17H190.21Z"/><path class="cls-1" d="M33.9,134.06l.34-3.57-9.5-.91-.29,3.08-2.36-.22a14.12,14.12,0,0,0-.4-2.34,13.52,13.52,0,0,0-.71-1.89l.27-2.8,13.35,1.27.29-3.08,3.08.29-1,10.46Z"/><path class="cls-1" d="M40.44,114a5.26,5.26,0,0,1-1.14,2.2,5.08,5.08,0,0,1-2.06,1.39,8.34,8.34,0,0,1-2.92.49,14.46,14.46,0,0,1-3.71-.5,14.37,14.37,0,0,1-3.47-1.33,8.41,8.41,0,0,1-2.28-1.82,5,5,0,0,1-1.11-2.2,5.46,5.46,0,0,1,.09-2.47A5.53,5.53,0,0,1,25,107.55a5.06,5.06,0,0,1,2-1.4,8.66,8.66,0,0,1,2.88-.5,14.42,14.42,0,0,1,3.69.5A14.28,14.28,0,0,1,37,107.49a8.54,8.54,0,0,1,2.33,1.82,5.38,5.38,0,0,1,1.14,2.21A5.26,5.26,0,0,1,40.44,114Zm-2.87-.74a1.76,1.76,0,0,0,0-.94,2,2,0,0,0-.69-.93,6.14,6.14,0,0,0-1.57-.9,19.92,19.92,0,0,0-2.65-.85,18.49,18.49,0,0,0-2.72-.52,5.76,5.76,0,0,0-1.76.05,1.92,1.92,0,0,0-1,.5,1.79,1.79,0,0,0-.45.82,1.66,1.66,0,0,0,0,.91,1.87,1.87,0,0,0,.64.92,6,6,0,0,0,1.51.9,18.22,18.22,0,0,0,2.64.86,16.85,16.85,0,0,0,2.74.51,6.5,6.5,0,0,0,1.81,0,2,2,0,0,0,1-.48A1.75,1.75,0,0,0,37.57,113.27Z"/><path class="cls-1" d="M45.46,99.26a5.24,5.24,0,0,1-1.47,2,5.11,5.11,0,0,1-2.25,1.06,8.57,8.57,0,0,1-3,0,14.22,14.22,0,0,1-3.58-1.08A14.15,14.15,0,0,1,32,99.42a8.5,8.5,0,0,1-2-2.15,4.92,4.92,0,0,1-.75-2.34,5.79,5.79,0,0,1,1.91-4.45,5,5,0,0,1,2.22-1.07,8.32,8.32,0,0,1,2.92,0,14.22,14.22,0,0,1,3.56,1.06,14.39,14.39,0,0,1,3.25,1.86,8.59,8.59,0,0,1,2,2.17,5,5,0,0,1,.34,4.8Zm-2.73-1.17a1.76,1.76,0,0,0,.14-.93,2,2,0,0,0-.54-1A6.91,6.91,0,0,0,40.92,95a17.82,17.82,0,0,0-2.49-1.25,17.45,17.45,0,0,0-2.61-.94,5.71,5.71,0,0,0-1.74-.22,2,2,0,0,0-1.07.33,1.82,1.82,0,0,0-.57.74,1.76,1.76,0,0,0-.13.91,1.88,1.88,0,0,0,.48,1,6.18,6.18,0,0,0,1.36,1.12A16.35,16.35,0,0,0,36.62,98a18,18,0,0,0,2.63.94,6.89,6.89,0,0,0,1.8.23,2,2,0,0,0,1.11-.31A1.67,1.67,0,0,0,42.73,98.09Z"/><path class="cls-1" d="M45.8,83.34a3.86,3.86,0,0,1-1.26,1.19,3.66,3.66,0,0,1-1.63.5,5.16,5.16,0,0,1-1.9-.25,8.4,8.4,0,0,1-3.74-2.57,5.18,5.18,0,0,1-.89-1.66,3.79,3.79,0,0,1-.11-1.7,3.92,3.92,0,0,1,.66-1.6,3.86,3.86,0,0,1,1.26-1.19,3.76,3.76,0,0,1,1.62-.51,5.54,5.54,0,0,1,1.89.22,7.48,7.48,0,0,1,2,1,7.3,7.3,0,0,1,1.69,1.55,5.54,5.54,0,0,1,.91,1.7,3.79,3.79,0,0,1,.12,1.7A4.06,4.06,0,0,1,45.8,83.34ZM44,82.14a1.3,1.3,0,0,0,0-1.33A5.11,5.11,0,0,0,42.23,79a5,5,0,0,0-2.34-1.06,1.3,1.3,0,0,0-1.2.52,1.27,1.27,0,0,0,0,1.3,4.92,4.92,0,0,0,1.82,1.81,5.13,5.13,0,0,0,2.36,1.06A1.29,1.29,0,0,0,44,82.14Zm7.7,4.59-9.3-17.5,1.25-1.82L53,84.91Zm6.76-9.84a4.07,4.07,0,0,1-1.26,1.19,3.66,3.66,0,0,1-1.64.5,5.11,5.11,0,0,1-1.89-.25A8.26,8.26,0,0,1,50,75.76a5,5,0,0,1-.89-1.66A3.65,3.65,0,0,1,49,72.4a3.79,3.79,0,0,1,.66-1.6,3.93,3.93,0,0,1,1.25-1.19,3.85,3.85,0,0,1,1.63-.51,5.24,5.24,0,0,1,1.88.23,7.08,7.08,0,0,1,2,1,7.51,7.51,0,0,1,1.69,1.55,5.29,5.29,0,0,1,.9,1.7,3.53,3.53,0,0,1,.12,1.7A3.9,3.9,0,0,1,58.5,76.89Zm-1.76-1.2a1.33,1.33,0,0,0,0-1.33,5.16,5.16,0,0,0-1.85-1.81,5,5,0,0,0-2.33-1.06,1.33,1.33,0,0,0-1.21.52,1.29,1.29,0,0,0,0,1.3,4.92,4.92,0,0,0,1.82,1.81,5.26,5.26,0,0,0,2.35,1.07A1.34,1.34,0,0,0,56.74,75.69Z"/><path class="cls-1" d="M63.33,58.83a10.06,10.06,0,0,1-1.89-3.31A8.36,8.36,0,0,1,61,52.25a7.39,7.39,0,0,1,.87-3,8.14,8.14,0,0,1,2-2.45,6.27,6.27,0,0,1,2.64-1.32,8.06,8.06,0,0,1,2.64-.18L69,48.49a6.29,6.29,0,0,0-1.6.11,3.41,3.41,0,0,0-1.41.73,3.75,3.75,0,0,0-1,1.35,4,4,0,0,0-.34,1.68,5.14,5.14,0,0,0,.4,1.89,7.6,7.6,0,0,0,1.21,2,6.48,6.48,0,0,0,3.46,2.42,3.56,3.56,0,0,0,3.22-.8,3.68,3.68,0,0,0,1.14-1.48,5.25,5.25,0,0,0,.38-1.73l3.1.43a7.07,7.07,0,0,1-.68,3A6.94,6.94,0,0,1,75,60.42,8.39,8.39,0,0,1,72.28,62a7,7,0,0,1-3,.36,7.7,7.7,0,0,1-3.06-1A10.59,10.59,0,0,1,63.33,58.83Z"/><path class="cls-1" d="M87.58,46.81,83.1,49.4l1.12,4-3.37,2L76.94,38l4-2.31L94,47.74l-3.51,2Zm-2.17-2.2-1.12-1.15c-.64-.62-1.29-1.28-2-2l-2-2-.09.06.83,2.71c.29.93.54,1.82.76,2.68l.42,1.55Z"/><path class="cls-1" d="M106,43.11l-5.16-4.61-2,.73L101,45l-3.59,1.33L91.56,30.38l5.73-2.11a11.85,11.85,0,0,1,2.47-.64,5.74,5.74,0,0,1,2.24.11,4.31,4.31,0,0,1,1.88,1A5.59,5.59,0,0,1,105.24,31a5.44,5.44,0,0,1,.3,3.18,5.08,5.08,0,0,1-1.44,2.45l6,5Zm-8.19-6.73,1.85-.69a3.55,3.55,0,0,0,1.94-1.39,2.26,2.26,0,0,0,.09-2,1.86,1.86,0,0,0-1.34-1.36,4.32,4.32,0,0,0-2.33.33l-1.86.68Z"/><path class="cls-1" d="M111.37,23.92l5.71-1a15.59,15.59,0,0,1,2.45-.24,6.16,6.16,0,0,1,2.07.33A3.75,3.75,0,0,1,123.13,24,3.87,3.87,0,0,1,124,26a4.08,4.08,0,0,1,0,1.16,3.74,3.74,0,0,1-.32,1.13,3.46,3.46,0,0,1-.71,1,3.85,3.85,0,0,1-1.15.79v.1a4.9,4.9,0,0,1,2.93.8,3.7,3.7,0,0,1,1.38,2.47,4.7,4.7,0,0,1-.1,2.29,4.43,4.43,0,0,1-1.11,1.77,6.43,6.43,0,0,1-1.9,1.26,10.35,10.35,0,0,1-2.49.75l-6.19,1.11Zm6.73,5.74a3,3,0,0,0,1.91-.9,2,2,0,0,0,.36-1.61,1.53,1.53,0,0,0-.88-1.25,3.88,3.88,0,0,0-2,0l-1.79.32.68,3.81Zm1.62,7q3.09-.55,2.69-2.83a1.81,1.81,0,0,0-1.06-1.46,4.37,4.37,0,0,0-2.42-.09l-2.12.38.78,4.38Z"/><path class="cls-1" d="M138.53,38.31a7.92,7.92,0,0,1-3.13-.66,6.84,6.84,0,0,1-2.4-1.79,8.26,8.26,0,0,1-1.53-2.81,11.7,11.7,0,0,1-.5-3.73,11.58,11.58,0,0,1,.62-3.69,7.68,7.68,0,0,1,1.62-2.71,6.93,6.93,0,0,1,2.46-1.65,8.19,8.19,0,0,1,3.14-.53,8,8,0,0,1,3.12.64,6.63,6.63,0,0,1,2.41,1.74,7.89,7.89,0,0,1,1.53,2.77,11.42,11.42,0,0,1,.5,3.68,11.66,11.66,0,0,1-.62,3.71A8,8,0,0,1,144.13,36a6.82,6.82,0,0,1-2.46,1.71A7.67,7.67,0,0,1,138.53,38.31Zm.05-3.3a3.15,3.15,0,0,0,2.78-1.45,7.16,7.16,0,0,0,1.08-4.05,6.75,6.75,0,0,0-.95-4,3.36,3.36,0,0,0-5.51-.09,6.8,6.8,0,0,0-1.08,4,7.12,7.12,0,0,0,.95,4.08A3.16,3.16,0,0,0,138.58,35Z"/><path class="cls-1" d="M154.52,22l3.85.76,2.7,9.12.9,4,.1,0,.3-3a28.92,28.92,0,0,1,.45-3.14L164,23.88l3.57.71-3.3,16.63-3.85-.76-2.69-9.15-.92-3.95-.1,0c-.09.94-.19,1.94-.29,3a28.72,28.72,0,0,1-.44,3.09l-1.17,5.89-3.57-.7Z"/><path class="cls-1" d="M184.57,30.4l3.51,1.75.2,9.51-.18,4.09.1,0c.32-.85.68-1.79,1.07-2.84s.82-2,1.27-2.91l2.66-5.35,3.26,1.62L188.9,51.49l-3.51-1.75-.19-9.53.15-4.05-.09,0c-.34.87-.7,1.82-1.08,2.83A30.19,30.19,0,0,1,183,41.82l-2.68,5.37L177,45.57Z"/><path class="cls-1" d="M203.91,41l8.53,6.3-1.91,2.59-5.46-4-2,2.74,4.64,3.43-1.9,2.57-4.64-3.43-2.32,3.14,5.67,4.19-1.92,2.59-8.74-6.46Z"/><path class="cls-1" d="M218.76,52.77l2.65,2.78-6.87,6.55a5.91,5.91,0,0,0-2,2.95,2.57,2.57,0,0,0,.79,2.26,2.65,2.65,0,0,0,2.24.92,5.84,5.84,0,0,0,3.06-1.84l6.87-6.55,2.55,2.68-6.59,6.27q-3.09,2.94-5.68,3.06a6.26,6.26,0,0,1-4.84-2.26,6.42,6.42,0,0,1-2.07-5q.21-2.61,3.3-5.55Z"/><path class="cls-1" d="M232.54,74,230,70.08l2.69-1.78,7.28,11L237.25,81l-2.58-3.88-11.43,7.6-2.13-3.2Z"/><path class="cls-1" d="M231.68,101,236,95.59l-.86-1.93-5.58,2.48L228,92.64l15.5-6.86,2.47,5.58a11.64,11.64,0,0,1,.79,2.43,5.66,5.66,0,0,1,0,2.24,4.38,4.38,0,0,1-.91,1.94,5.57,5.57,0,0,1-2.1,1.5,5.45,5.45,0,0,1-3.15.5,5,5,0,0,1-2.54-1.28L233.41,105Zm6.2-8.61.8,1.81a3.55,3.55,0,0,0,1.51,1.84,2.26,2.26,0,0,0,2,0,1.9,1.9,0,0,0,1.28-1.43,4.55,4.55,0,0,0-.48-2.31l-.8-1.81Z"/><path class="cls-1" d="M240.46,115.68l-1.26-5-4.16,0-1-3.78,17.74,1,1.12,4.46-15.14,9.29-1-3.94Zm2.71-1.49,1.42-.76c.76-.44,1.58-.89,2.45-1.34s1.7-.89,2.5-1.33l0-.1-2.84.06c-1,0-1.9,0-2.78,0l-1.61,0Z"/><path class="cls-1" d="M255.08,123.88l.34,3.8-13.68,1.2.59,6.68-3.21.28-.92-10.49Z"/><path class="cls-1" d="M78,233.92A8.35,8.35,0,0,0,79.06,236a5.32,5.32,0,0,0,1.62,1.53,3,3,0,0,0,1.76.52,1.4,1.4,0,0,0,1.11-.74,1.3,1.3,0,0,0,.2-.66,1.59,1.59,0,0,0-.17-.69,4.28,4.28,0,0,0-.46-.76l-.65-.87L81,232.44a7.08,7.08,0,0,1-.74-1.22,5.72,5.72,0,0,1-.45-1.4,4.78,4.78,0,0,1,0-1.51,4.69,4.69,0,0,1,.61-1.59,4.59,4.59,0,0,1,1.37-1.47,4.86,4.86,0,0,1,1.9-.75,6,6,0,0,1,2.19,0,7.39,7.39,0,0,1,2.29.89,7.91,7.91,0,0,1,2.23,2,7.39,7.39,0,0,1,1.35,2.72l-2.91,1.1a7.28,7.28,0,0,0-.93-1.71,4.74,4.74,0,0,0-1.41-1.24,2.8,2.8,0,0,0-1.56-.45,1.3,1.3,0,0,0-1.08.68,1.12,1.12,0,0,0-.17.67,2,2,0,0,0,.22.7,5.59,5.59,0,0,0,.5.78c.2.26.42.56.65.88l1.44,1.87a6,6,0,0,1,1.25,2.72,4.46,4.46,0,0,1-.7,3,4.79,4.79,0,0,1-1.39,1.51,4.71,4.71,0,0,1-1.92.81,6.22,6.22,0,0,1-2.31,0,8,8,0,0,1-2.55-1,9.36,9.36,0,0,1-2.55-2.21,8.57,8.57,0,0,1-1.61-3.08Z"/><path class="cls-1" d="M96.31,230.26l3.58,1.35-2.31,6.1,5.48,2.07,2.3-6.11L109,235l-6,15.86-3.6-1.35,2.49-6.62-5.47-2.07-2.5,6.62-3.57-1.35Z"/><path class="cls-1" d="M113.64,236.08l3.73.84-3.72,16.54-3.73-.84Z"/><path class="cls-1" d="M122.08,237.92l6.16.57a11.28,11.28,0,0,1,2.56.51,5.75,5.75,0,0,1,2,1.1,4.52,4.52,0,0,1,1.26,1.81,5.9,5.9,0,0,1,.28,2.63,5.8,5.8,0,0,1-.77,2.51,5.06,5.06,0,0,1-1.6,1.65,6.37,6.37,0,0,1-2.19.85,9.51,9.51,0,0,1-2.57.1l-2.36-.22-.53,5.72-3.8-.35Zm5.18,8.68q3.11.28,3.36-2.41a2.14,2.14,0,0,0-.62-1.94,4.08,4.08,0,0,0-2.27-.75l-2.12-.2-.47,5.1Z"/><path class="cls-1" d="M138.37,239l6.17-.45a11.81,11.81,0,0,1,2.61.08,5.77,5.77,0,0,1,2.16.75,4.49,4.49,0,0,1,1.54,1.58,5.89,5.89,0,0,1,.71,2.55,5.7,5.7,0,0,1-.35,2.6,4.92,4.92,0,0,1-1.3,1.9,6.11,6.11,0,0,1-2,1.19,9.18,9.18,0,0,1-2.51.52l-2.36.18.42,5.73-3.81.28Zm6.54,7.71c2.07-.16,3.05-1.13,2.91-2.93a2.11,2.11,0,0,0-.92-1.81,4.12,4.12,0,0,0-2.36-.37l-2.13.15.37,5.11Z"/><path class="cls-1" d="M154.85,237.26l3.74-.77,3.42,16.6-3.74.78Z"/><path class="cls-1" d="M163.27,235.53l3.7-1.32,7,6.46,2.82,3,.1,0c-.38-.82-.82-1.73-1.29-2.74a30.09,30.09,0,0,1-1.22-2.93l-2-5.64,3.43-1.22,5.67,16-3.7,1.31-7-6.48L168,239l-.09,0c.39.85.82,1.77,1.29,2.74s.86,1.94,1.2,2.88l2,5.66-3.43,1.22Z"/><path class="cls-1" d="M183.49,237a10.1,10.1,0,0,1-1.3-3.59,8.34,8.34,0,0,1,.17-3.32,7.58,7.58,0,0,1,1.43-2.83,8.67,8.67,0,0,1,2.51-2.13,6.78,6.78,0,0,1,3-1,8,8,0,0,1,2.62.26l-.65,3.1a5.25,5.25,0,0,0-1.6-.16,4.19,4.19,0,0,0-1.71.6,4.33,4.33,0,0,0-1.38,1.23,4,4,0,0,0-.69,1.64,4.74,4.74,0,0,0,.05,1.94,7.61,7.61,0,0,0,.86,2.15,6.24,6.24,0,0,0,3,2.94,4.37,4.37,0,0,0,3.82-.53,3.78,3.78,0,0,0,.81-.62A1.9,1.9,0,0,0,195,236l-1.45-2.52-2.44,1.4-1.55-2.71,5.37-3.08,3.88,6.76a7.56,7.56,0,0,1-1.35,2.46,8.84,8.84,0,0,1-2.54,2.15,9,9,0,0,1-3.06,1.11,7.47,7.47,0,0,1-3.09-.13,7.62,7.62,0,0,1-2.88-1.48A10.3,10.3,0,0,1,183.49,237Z"/><path class="cls-1" d="M150.9,211.44s0-13.91-8.28-19.61c-8.08-5.54-35.35,0-42.78-7.42,0,0,.87,9.47,16.41,23.16s31.88,6.49,31.88,6.49c4.22,4.12,10.73,4.89,10.73,4.89l10.6-2.78L177.7,211C157.86,221.76,150.9,211.44,150.9,211.44Z"/><path class="cls-1" d="M190.85,141.65l-.66.06c.65-.69,1.3-1.37,1.92-2.07a34.29,34.29,0,0,0,2.48-3.17,17.35,17.35,0,0,0,1.76-3.22A8.51,8.51,0,0,0,197,130a8.86,8.86,0,0,0-.6-3.31,7.36,7.36,0,0,0-1.74-2.57,8,8,0,0,0-2.67-1.65,9.78,9.78,0,0,0-3.4-.57,9.94,9.94,0,0,0-4.63,1,14.36,14.36,0,0,0-3.75,2.94l-.34.37,3.74,3.69.36-.39a12.23,12.23,0,0,1,1.84-1.64,3.32,3.32,0,0,1,2-.64A2.84,2.84,0,0,1,190,128a3.17,3.17,0,0,1,.75,2.33,5,5,0,0,1-.71,2.44,17.9,17.9,0,0,1-2.08,3c-.9,1.07-2,2.23-3.24,3.46s-2.66,2.57-4.18,4l-.17.16v3.89H198.2v-5.69h-5.33C192.28,141.55,191.6,141.59,190.85,141.65Z"/><path class="cls-1" d="M138,9a129,129,0,0,1,91.22,220.22A129,129,0,0,1,46.78,46.78,128.18,128.18,0,0,1,138,9m0-7A136,136,0,1,0,274,138,136,136,0,0,0,138,2Z"/><path class="cls-1" d="M138,55a83,83,0,1,1-83,83,83.09,83.09,0,0,1,83-83m0-7a90,90,0,1,0,90,90A90,90,0,0,0,138,48Z"/></svg>