<?xml version="1.0" encoding="UTF-8" standalone="no"?><!DOCTYPE svg PUBLIC "-//W3C//DTD SVG 1.1//EN" "http://www.w3.org/Graphics/SVG/1.1/DTD/svg11.dtd"><svg width="100%" height="100%" viewBox="0 0 50 50" version="1.1" xmlns="http://www.w3.org/2000/svg" xmlns:xlink="http://www.w3.org/1999/xlink" xml:space="preserve" xmlns:serif="http://www.serif.com/" style="fill-rule:evenodd;clip-rule:evenodd;stroke-linejoin:round;stroke-miterlimit:2;"><path d="M12.35,26.147l-0.211,-0.095c-1.546,-0.7 -2.545,-2.249 -2.545,-3.945l0,-5.454c0,-0.497 0.403,-0.901 0.9,-0.901c0.497,-0 0.9,0.404 0.9,0.901l0,5.454c0,0.991 0.584,1.896 1.488,2.306l3.45,1.56c0.663,0.302 1.424,0.299 2.085,-0l1.95,-0.882c0.021,-0.018 0.043,-0.035 0.066,-0.051c0.121,-0.085 0.255,-0.136 0.392,-0.156l1.042,-0.471c0.904,-0.41 1.488,-1.315 1.488,-2.306l0,-5.381c0,-0.497 0.403,-0.9 0.901,-0.9c0.497,-0 0.899,0.403 0.899,0.9l0,5.381c0,1.696 -0.999,3.245 -2.545,3.945l-0.275,0.124l1.719,2.438l4.815,2.033c2.054,0.867 3.381,2.869 3.381,5.099l0,5.86c0.001,0.048 -0.002,0.096 -0.009,0.144c-0.019,0.137 -0.069,0.265 -0.142,0.375c-0.092,0.138 -0.222,0.252 -0.384,0.324c-0.254,0.112 -6.307,2.754 -14.425,2.754c-8.123,-0 -14.017,-2.646 -14.264,-2.758c-0.338,-0.155 -0.535,-0.492 -0.526,-0.842l0,-5.857c0,-2.23 1.327,-4.232 3.381,-5.099l4.692,-1.981l1.777,-2.519Zm5.812,17.244c-0.288,0.007 -0.579,0.011 -0.872,0.011c-0.294,0 -0.585,-0.004 -0.872,-0.011l0.872,-4.637l0.872,4.637Zm5.388,-13.036l4.619,1.95c1.385,0.585 2.281,1.936 2.281,3.441l0,5.272c-1.39,0.534 -5.361,1.899 -10.474,2.282l-1.725,-9.175l1.828,-2.28l3.471,-1.49Zm-12.393,0.018l3.301,1.417l1.871,2.334l-1.725,9.176c-5.072,-0.384 -8.944,-1.742 -10.304,-2.276l0,-5.278c0,-1.505 0.895,-2.856 2.281,-3.441l4.576,-1.932Zm23.588,7.475c-0.497,0 -0.9,-0.403 -0.9,-0.9c0,-0.497 0.403,-0.901 0.9,-0.901l5.182,0c-0.353,-0.573 -0.556,-1.248 -0.556,-1.969l0,-5.77l-0.1,0c-0.497,0 -0.9,-0.403 -0.9,-0.9c0,-0.497 0.403,-0.9 0.9,-0.9l0.1,0l0,-8.279l-0.1,0c-0.497,0 -0.9,-0.403 -0.9,-0.9c0,-0.497 0.403,-0.901 0.9,-0.901l0.1,0l0,-4.869l-11.101,0c-0.497,0 -0.9,-0.403 -0.9,-0.9c0,-0.497 0.403,-0.901 0.9,-0.901l11.21,0c0.405,-1.646 1.892,-2.87 3.661,-2.87c2.079,0 3.77,1.692 3.77,3.771l0,23.419c0,2.079 -1.691,3.77 -3.77,3.77l-8.396,0Zm8.396,-5.74c-1.086,-0 -1.97,0.884 -1.97,1.97c-0,1.086 0.884,1.969 1.97,1.969c1.087,-0 1.971,-0.883 1.971,-1.969c-0,-1.086 -0.884,-1.97 -1.971,-1.97Zm-27.029,-1.13l1.178,1.468l1.226,-1.53l-1.184,-1.987l-1.22,2.049Zm29,-20.319l-0,20.206c-0.574,-0.354 -1.249,-0.558 -1.971,-0.558c-0.722,-0 -1.396,0.204 -1.97,0.557l-0,-20.205c-0,-1.086 0.884,-1.97 1.97,-1.97c1.087,0 1.971,0.884 1.971,1.97Zm-31.093,16.243l1.57,0.71c0.114,0.052 0.23,0.099 0.348,0.14l-1.287,2.162l-2.114,-0.908l1.483,-2.104Zm6.647,0.029l1.463,2.075l-2.114,0.908l-1.273,-2.137c0.141,-0.047 0.28,-0.102 0.417,-0.164l1.507,-0.682Zm16.226,1.377l-1.586,-0c-0.497,-0 -0.9,-0.403 -0.9,-0.9c-0,-0.497 0.403,-0.9 0.9,-0.9l1.586,-0c0.497,-0 0.9,0.403 0.9,0.9c-0,0.497 -0.403,0.9 -0.9,0.9Zm-3.964,-0l-1,-0c-0.497,-0 -0.9,-0.403 -0.9,-0.9l-0,-1c-0,-0.497 0.403,-0.9 0.9,-0.9c0.497,-0 0.9,0.403 0.9,0.9l-0,0.1l0.1,-0c0.497,-0 0.9,0.403 0.9,0.9c-0,0.497 -0.403,0.9 -0.9,0.9Zm-1,-4.029c-0.497,-0 -0.9,-0.404 -0.9,-0.901l-0,-2.019c-0,-0.497 0.403,-0.901 0.9,-0.901c0.497,-0 0.9,0.404 0.9,0.901l-0,2.019c-0,0.497 -0.403,0.901 -0.9,0.901Zm-0,-5.05c-0.497,-0 -0.9,-0.403 -0.9,-0.9l-0,-1c-0,-0.497 0.403,-0.901 0.9,-0.901l1,-0c0.497,-0 0.9,0.404 0.9,0.901c-0,0.497 -0.403,0.9 -0.9,0.9l-0.1,-0l-0,0.1c-0,0.497 -0.403,0.9 -0.9,0.9Zm4.964,-1l-1.585,-0c-0.497,-0 -0.9,-0.403 -0.9,-0.9c-0,-0.497 0.403,-0.901 0.9,-0.901l1.585,-0c0.497,-0 0.9,0.404 0.9,0.901c-0,0.497 -0.403,0.9 -0.9,0.9Zm-28.088,-5.209c0.334,-4.259 3.048,-8.52 8.57,-8.52c5.523,-0 8.237,4.261 8.571,8.52l0.71,-0c0.497,-0 0.9,0.403 0.9,0.9c-0,0.497 -0.403,0.901 -0.9,0.901l-18.561,-0c-0.497,-0 -0.899,-0.404 -0.899,-0.901c-0,-0.497 0.402,-0.9 0.899,-0.9l0.71,-0Zm11.947,-5.888c2.087,1.184 3.174,3.48 3.389,5.888l-3.389,-0l-0,-5.888Zm-6.753,-0l-0,5.888l-3.389,-0c0.214,-2.408 1.302,-4.705 3.389,-5.888Zm4.953,-0.673l-0,6.561l-3.153,-0l-0,-6.561c0.489,-0.103 1.014,-0.158 1.576,-0.158c0.563,-0 1.088,0.055 1.577,0.158Z" style="fill:#fff;"/></svg>