<?xml version="1.0" encoding="utf-8"?>
<!-- Generator: Adobe Illustrator 16.0.0, SVG Export Plug-In . SVG Version: 6.00 Build 0)  -->
<!DOCTYPE svg PUBLIC "-//W3C//DTD SVG 1.1//EN" "http://www.w3.org/Graphics/SVG/1.1/DTD/svg11.dtd">
<svg version="1.1" id="Ebene_1" xmlns="http://www.w3.org/2000/svg" xmlns:xlink="http://www.w3.org/1999/xlink" x="0px" y="0px"
	 width="200px" height="200px" viewBox="0 0 200 200" enable-background="new 0 0 200 200" xml:space="preserve">
<title>Zertifikat-ENG Kopie</title>
<polygon fill="#FF8647" points="121.087,63.573 91.18,98.9 77.593,86.106 69.333,94.88 92.173,116.38 130.287,71.36 "/>
<path fill="#005B7F" d="M99.807,0C49.656,0.011,9.009,40.675,9.02,90.826c0.008,37.531,23.104,71.191,58.121,84.701V200l32.6-16.3
	l32.594,16.3v-24.4c46.83-17.945,70.244-70.457,52.297-117.288C171.168,23.178,137.432-0.013,99.807,0z M127.613,172.3v20.087
	l-21.947-10.974l-5.946-2.974L93.8,181.4l-22,10.985v-53.1c17.251,9.979,38.511,10.021,55.8,0.106L127.613,172.3z M125.273,135.334
	c-24.562,14.02-55.837,5.475-69.857-19.086c-14.021-24.56-5.476-55.836,19.085-69.856s55.837-5.476,69.856,19.084
	c11.449,20.057,8.057,45.295-8.284,61.618C132.857,130.311,129.225,133.081,125.273,135.334z M160.693,151.713
	c-8.107,8.102-17.748,14.504-28.359,18.834v-34.174c25.18-17.957,31.035-52.928,13.078-78.108
	c-17.957-25.18-52.928-31.036-78.108-13.079c-25.18,17.957-31.037,52.928-13.079,78.109c3.562,4.994,7.921,9.37,12.902,12.951
	v34.227c-44-18.051-65.035-68.354-46.982-112.354C38.197,14.119,88.5-6.916,132.5,11.137c44,18.053,65.034,68.355,46.982,112.354
	c-4.33,10.552-10.711,20.139-18.774,28.202L160.693,151.713z"/>
<rect x="33.366" y="55.228" transform="matrix(0.4022 -0.9156 0.9156 0.4022 -36.2062 69.3221)" fill="#005B7F" width="3.226" height="14.314"/>
<path fill="#005B7F" d="M47.22,50.473c-0.313-0.496-0.732-0.917-1.227-1.233c-0.713-0.505-1.583-0.741-2.453-0.667
	c-0.85,0.107-1.658,0.431-2.347,0.94l-1.633,1.133l-0.773,0.52c-0.212,0.146-0.435,0.275-0.667,0.387
	c-0.189,0.088-0.392,0.141-0.6,0.153c-0.2,0.005-0.396-0.053-0.56-0.167c-0.328-0.2-0.527-0.556-0.527-0.94
	c0.009-0.466,0.163-0.918,0.44-1.293c0.286-0.452,0.66-0.842,1.1-1.146c0.461-0.299,0.958-0.536,1.48-0.707l-0.807-2.5
	c-0.843,0.176-1.642,0.523-2.347,1.02c-0.695,0.487-1.292,1.1-1.76,1.807c-0.396,0.565-0.691,1.195-0.874,1.86
	c-0.158,0.604-0.198,1.233-0.12,1.853c0.067,0.576,0.258,1.131,0.56,1.627c0.297,0.49,0.7,0.907,1.18,1.22
	c0.405,0.272,0.857,0.467,1.333,0.573c0.418,0.093,0.849,0.113,1.273,0.06c0.412-0.049,0.815-0.152,1.2-0.307
	c0.374-0.154,0.729-0.349,1.06-0.58l1.68-1.127l0.773-0.513c0.208-0.143,0.432-0.261,0.667-0.354
	c0.184-0.084,0.384-0.125,0.586-0.12c0.198,0.016,0.389,0.083,0.553,0.193c0.339,0.204,0.557,0.56,0.587,0.954
	c-0.006,0.532-0.187,1.047-0.513,1.467c-0.344,0.535-0.798,0.989-1.333,1.333c-0.568,0.364-1.186,0.644-1.833,0.833l0.84,2.753
	c0.963-0.227,1.87-0.646,2.667-1.233c0.77-0.565,1.434-1.263,1.96-2.06c0.415-0.655,0.713-1.376,0.88-2.133
	c0.166-0.637,0.208-1.3,0.127-1.954C47.722,51.541,47.527,50.978,47.22,50.473z"/>
<path fill="#005B7F" d="M55.507,35.153c-0.725-0.773-1.571-1.422-2.507-1.92c-0.795-0.424-1.669-0.678-2.567-0.747
	c-0.842-0.064-1.688,0.066-2.473,0.38c-1.685,0.702-3.046,2.007-3.82,3.66c-0.337,0.771-0.499,1.606-0.474,2.446
	c0.041,0.899,0.268,1.78,0.667,2.587c0.458,0.958,1.073,1.832,1.82,2.586c0.725,0.781,1.574,1.437,2.513,1.94
	c0.803,0.428,1.682,0.692,2.587,0.78c0.852,0.07,1.708-0.051,2.506-0.354c1.699-0.679,3.069-1.991,3.82-3.66
	c0.337-0.784,0.495-1.634,0.46-2.487c-0.044-0.909-0.271-1.8-0.667-2.62C56.897,36.786,56.267,35.91,55.507,35.153z M54.067,43.04
	c-0.674,0.657-1.645,0.911-2.554,0.667c-1.166-0.315-2.211-0.972-3-1.887c-0.866-0.807-1.462-1.861-1.707-3.02
	c-0.228-1.559,0.852-3.008,2.411-3.236c0.307-0.044,0.618-0.04,0.923,0.016c1.145,0.295,2.171,0.935,2.94,1.833
	c0.877,0.828,1.49,1.897,1.76,3.074C55.057,41.415,54.762,42.388,54.067,43.04z"/>
<path fill="#005B7F" d="M77.106,28.227c-0.348,0.405-0.789,0.719-1.287,0.914c-0.903,0.407-1.949,0.347-2.8-0.16
	c-1.022-0.668-1.792-1.658-2.187-2.813c-0.268-0.6-0.437-1.239-0.5-1.893c-0.049-0.541,0.005-1.086,0.16-1.607
	c0.127-0.468,0.354-0.902,0.667-1.273c0.319-0.371,0.721-0.661,1.173-0.847c0.417-0.189,0.876-0.27,1.333-0.233
	s0.905,0.138,1.333,0.3l0.88-2.526c-0.691-0.289-1.426-0.462-2.173-0.514c-0.839-0.061-1.68,0.081-2.453,0.414
	c-0.842,0.336-1.608,0.836-2.253,1.473c-0.629,0.621-1.122,1.365-1.447,2.187c-0.333,0.876-0.492,1.81-0.466,2.747
	c0.037,1.082,0.277,2.146,0.707,3.14c0.395,1.007,0.971,1.934,1.7,2.733c0.623,0.672,1.379,1.206,2.22,1.567
	c0.797,0.332,1.657,0.488,2.52,0.46c0.894-0.023,1.776-0.213,2.6-0.56c1.631-0.651,2.879-2.007,3.393-3.687l-2.393-1.127
	C77.665,27.393,77.419,27.834,77.106,28.227z"/>
<polygon fill="#005B7F" points="86.72,25.753 86.126,22.513 90.92,21.64 90.433,18.98 85.64,19.86 85.12,17.027 90.76,16 
	90.267,13.32 81.453,14.933 84.033,29.013 93.06,27.367 92.573,24.687 "/>
<path fill="#005B7F" d="M107.087,20.14c0.511-0.763,0.78-1.662,0.772-2.58c0.049-0.732-0.077-1.465-0.366-2.14
	c-0.261-0.564-0.659-1.052-1.159-1.42c-0.518-0.375-1.102-0.644-1.721-0.793c-0.699-0.17-1.414-0.266-2.133-0.287l-5.162-0.173
	l-0.466,14.307l3.22,0.113L100.267,22l1.78,0.053l2.566,5.28l3.627,0.12l-3.061-5.84C105.945,21.317,106.607,20.805,107.087,20.14z
	 M103.98,19.027c-0.582,0.373-1.272,0.54-1.961,0.473l-1.667-0.053l0.133-4l1.667,0.06c0.675-0.019,1.342,0.147,1.928,0.48
	c0.465,0.346,0.703,0.919,0.62,1.493C104.717,18.08,104.45,18.653,103.98,19.027z"/>
<polygon fill="#005B7F" points="113.279,13.84 112.627,16.48 116.439,17.434 113.641,28.68 116.793,29.467 119.594,18.213 
	123.406,19.167 124.061,16.52 "/>
<rect x="120.879" y="24.283" transform="matrix(0.3992 -0.9169 0.9169 0.3992 53.1813 132.9529)" fill="#005B7F" width="14.32" height="3.227"/>
<polygon fill="#005B7F" points="137.947,29.854 139.732,27.06 144.613,30.193 146.087,27.907 138.493,23.027 130.754,35.066 
	133.467,36.813 136.473,32.14 140.646,34.827 142.12,32.533 "/>
<rect x="139.874" y="36.479" transform="matrix(0.6676 -0.7445 0.7445 0.6676 20.5132 122.13)" fill="#005B7F" width="14.314" height="3.225"/>
<polygon fill="#005B7F" points="150.9,48.48 153.473,46.42 156.52,50.227 158.627,48.533 155.58,44.733 157.82,42.934 
	161.406,47.407 163.527,45.7 157.927,38.713 146.76,47.667 152.5,54.827 154.62,53.126 "/>
<path fill="#005B7F" d="M158.1,64.167c0.613,0.616,1.354,1.091,2.168,1.394c0.855,0.293,1.768,0.391,2.666,0.287
	c1.08-0.135,2.129-0.463,3.094-0.967c0.984-0.452,1.877-1.083,2.634-1.86c0.618-0.641,1.075-1.42,1.333-2.273
	c0.242-0.842,0.295-1.728,0.152-2.593c-0.16-0.992-0.475-1.953-0.934-2.847l-1.786-3.626L154.58,58l1.859,3.78
	C156.857,62.661,157.42,63.468,158.1,64.167z M166.507,55.733l0.267,0.546c0.256,0.502,0.438,1.039,0.541,1.594
	c0.093,0.491,0.062,0.998-0.094,1.473c-0.188,0.503-0.492,0.955-0.887,1.32c-0.525,0.5-1.129,0.911-1.787,1.213
	c-0.654,0.332-1.355,0.557-2.08,0.667c-0.549,0.087-1.109,0.048-1.641-0.113c-0.479-0.158-0.912-0.433-1.26-0.8
	c-0.389-0.41-0.709-0.877-0.953-1.387l-0.273-0.553L166.507,55.733z"/>
<path fill="#005B7F" d="M30.833,111.652c1.045-0.213,2.047-0.598,2.966-1.139c0.71-0.418,1.331-0.972,1.827-1.628
	c0.418-0.571,0.701-1.229,0.827-1.927c0.113-0.663,0.095-1.343-0.053-2c-0.139-0.6-0.388-1.165-0.733-1.673
	c-0.321-0.493-0.744-0.912-1.24-1.228c-0.505-0.332-1.072-0.559-1.667-0.666c-0.664-0.117-1.345-0.096-2,0.065
	c-0.638,0.13-1.247,0.378-1.793,0.733c-0.432,0.299-0.793,0.688-1.06,1.141c-0.263,0.441-0.427,0.936-0.48,1.445
	c-0.061,0.561-0.022,1.127,0.113,1.674c0.052,0.232,0.135,0.457,0.247,0.667c0.126,0.235,0.276,0.46,0.447,0.667
	c0.184,0.218,0.387,0.418,0.606,0.6c0.229,0.184,0.479,0.34,0.747,0.461c-0.677,0.146-1.369,0.207-2.06,0.187
	c-0.495-0.013-0.982-0.113-1.44-0.3c-0.359-0.141-0.676-0.371-0.92-0.668c-0.218-0.309-0.373-0.656-0.453-1.025
	c-0.1-0.407-0.1-0.833,0-1.24c0.085-0.384,0.244-0.749,0.467-1.072l-2.267-1.24c-0.358,0.584-0.616,1.225-0.76,1.894
	c-0.179,0.812-0.165,1.654,0.04,2.46c0.161,0.71,0.47,1.378,0.907,1.96c0.462,0.61,1.057,1.108,1.74,1.454
	c0.809,0.381,1.682,0.605,2.573,0.666C28.56,112.016,29.715,111.924,30.833,111.652z M30.053,105.213
	c0.319-0.484,0.837-0.802,1.414-0.865c0.592-0.188,1.235-0.143,1.793,0.133c0.406,0.232,0.696,0.623,0.8,1.08
	c0.104,0.506-0.009,1.035-0.313,1.453c-0.517,0.637-1.214,1.103-2,1.334c-0.482-0.135-0.921-0.393-1.273-0.748
	c-0.263-0.271-0.447-0.61-0.533-0.979C29.796,106.154,29.836,105.65,30.053,105.213L30.053,105.213z"/>
<path fill="#005B7F" d="M38.374,122.666c0.657-0.505,1.219-1.123,1.66-1.826c0.374-0.604,0.588-1.291,0.62-2
	c0.023-0.707-0.116-1.408-0.407-2.053c-0.282-0.65-0.708-1.227-1.247-1.688c-0.54-0.449-1.184-0.758-1.874-0.894
	c-0.815-0.146-1.65-0.146-2.466,0c-1.033,0.162-2.039,0.461-2.994,0.887c-0.977,0.406-1.896,0.939-2.733,1.587
	c-0.666,0.51-1.236,1.133-1.687,1.84c-0.386,0.601-0.616,1.289-0.667,2c-0.069,1.436,0.535,2.819,1.633,3.746
	c0.551,0.449,1.207,0.752,1.907,0.881c0.824,0.15,1.669,0.15,2.493,0c1.053-0.17,2.08-0.478,3.053-0.914
	C36.633,123.832,37.543,123.305,38.374,122.666z M32.227,122.254c-0.489,0.145-0.997,0.219-1.506,0.219
	c-0.334,0.006-0.662-0.086-0.947-0.26c-0.219-0.158-0.39-0.376-0.494-0.626c-0.105-0.241-0.143-0.507-0.106-0.767
	c0.061-0.326,0.216-0.629,0.447-0.867c0.348-0.373,0.745-0.698,1.18-0.967c0.668-0.414,1.368-0.775,2.094-1.08
	c0.712-0.324,1.45-0.59,2.207-0.793c0.479-0.139,0.976-0.201,1.473-0.188c0.32,0,0.634,0.096,0.9,0.273
	c0.208,0.158,0.374,0.367,0.48,0.605c0.111,0.246,0.155,0.519,0.127,0.787c-0.052,0.314-0.193,0.608-0.407,0.846
	c-0.331,0.371-0.718,0.689-1.146,0.94c-0.667,0.409-1.365,0.767-2.087,1.067c-0.716,0.32-1.456,0.586-2.213,0.793v0.016H32.227z"/>
<path fill="#005B7F" d="M40.12,125.812c-0.989,0.359-1.926,0.85-2.787,1.453c-0.882,0.586-1.686,1.28-2.394,2.067
	c-0.568,0.62-1.02,1.338-1.333,2.119c-0.262,0.659-0.356,1.375-0.273,2.08c0.213,1.427,1.075,2.675,2.333,3.38
	c0.627,0.337,1.328,0.513,2.04,0.514c0.838-0.005,1.668-0.156,2.454-0.445c0.992-0.367,1.933-0.86,2.8-1.467
	c0.877-0.578,1.676-1.269,2.374-2.055c0.546-0.628,0.978-1.35,1.273-2.126c0.254-0.658,0.339-1.369,0.247-2.067
	c-0.238-1.406-1.078-2.642-2.3-3.379c-0.612-0.341-1.3-0.521-2-0.527C41.722,125.363,40.897,125.518,40.12,125.812z M43.453,128.254
	c0.237,0.113,0.439,0.289,0.587,0.506c0.153,0.223,0.245,0.479,0.267,0.747c0.008,0.319-0.078,0.636-0.247,0.906
	c-0.253,0.428-0.573,0.812-0.947,1.14c-0.582,0.523-1.201,1.002-1.854,1.434c-0.637,0.449-1.306,0.854-2,1.207
	c-0.454,0.23-0.939,0.396-1.44,0.486c-0.325,0.068-0.663,0.04-0.973-0.08c-0.521-0.214-0.875-0.705-0.914-1.266
	c0.004-0.332,0.101-0.654,0.28-0.934c0.272-0.435,0.602-0.828,0.98-1.174c0.58-0.531,1.202-1.017,1.86-1.447
	c0.632-0.451,1.301-0.848,2-1.187c0.445-0.225,0.922-0.38,1.414-0.461c0.322-0.056,0.654-0.014,0.953,0.121L43.453,128.254
	L43.453,128.254z"/>
<path fill="#005B7F" d="M44.646,143.939l-2.133-2.152l-1.86,1.84l6.253,6.293l1.853-1.84l-1.84-1.854l8.04-8l-1.673-1.688
	c-0.553-0.139-1.095-0.318-1.62-0.54c-0.604-0.285-1.184-0.619-1.733-1l-1.42,1.406l1.82,1.854L44.646,143.939z"/>
<path fill="#005B7F" d="M156.793,141.934c-0.227,0.246-0.479,0.539-0.746,0.873s-0.514,0.666-0.721,0.939
	c-0.033-0.819-0.094-1.626-0.166-2.434c-0.068-0.771-0.182-1.535-0.34-2.293c-0.148-0.688-0.371-1.359-0.668-2
	c-0.244-0.562-0.598-1.072-1.039-1.5c-0.448-0.435-0.977-0.777-1.553-1.014c-0.527-0.21-1.095-0.302-1.66-0.267
	c-0.578,0.03-1.145,0.18-1.66,0.438c-0.572,0.287-1.088,0.676-1.52,1.146c-0.617,0.634-1.074,1.402-1.334,2.246
	c-0.229,0.869-0.31,1.771-0.24,2.668l2.467-0.088c-0.033-0.5-0.021-1.002,0.039-1.5c0.068-0.481,0.287-0.931,0.627-1.279
	c0.352-0.402,0.854-0.643,1.387-0.666c0.576,0.025,1.117,0.275,1.508,0.699c0.393,0.396,0.678,0.889,0.826,1.428
	c0.215,0.691,0.359,1.404,0.434,2.126c0.094,0.827,0.152,1.761,0.174,2.794c0.021,1.033,0,2.166,0,3.387l1.332,1.266l6.748-7.127
	l-2-1.873L156.793,141.934z"/>
<path fill="#005B7F" d="M165.666,127.768c-0.725-0.77-1.544-1.44-2.439-2c-0.871-0.586-1.817-1.053-2.812-1.388
	c-0.785-0.267-1.609-0.394-2.439-0.373c-0.705,0.021-1.394,0.222-2,0.58c-1.201,0.769-2.01,2.021-2.213,3.433
	c-0.076,0.699,0.023,1.404,0.293,2.055c0.319,0.765,0.771,1.466,1.334,2.072c1.471,1.521,3.27,2.681,5.26,3.395
	c0.793,0.275,1.627,0.409,2.467,0.395c0.703-0.023,1.39-0.219,2-0.566c1.227-0.741,2.045-2.005,2.221-3.428
	c0.062-0.709-0.047-1.422-0.32-2.08C166.688,129.091,166.23,128.383,165.666,127.768z M164.547,132.547
	c-0.146,0.219-0.346,0.395-0.58,0.514c-0.308,0.127-0.646,0.162-0.974,0.101c-0.507-0.076-0.998-0.228-1.46-0.447
	c-1.422-0.665-2.746-1.521-3.939-2.539c-0.379-0.325-0.707-0.704-0.974-1.127c-0.175-0.269-0.267-0.581-0.267-0.899
	c0.017-0.262,0.1-0.514,0.239-0.733c0.146-0.228,0.349-0.413,0.587-0.54c0.288-0.136,0.61-0.184,0.926-0.133
	c0.494,0.072,0.973,0.219,1.422,0.434c0.709,0.33,1.391,0.717,2.039,1.152c0.668,0.417,1.303,0.883,1.899,1.395
	c0.394,0.326,0.734,0.711,1.015,1.139c0.188,0.273,0.295,0.597,0.307,0.929C164.773,132.057,164.691,132.318,164.547,132.547
	L164.547,132.547z"/>
<path fill="#005B7F" d="M171.547,117.887l-10.486-4.272l-0.899,2.192c0.084,0.564,0.121,1.137,0.112,1.707
	c-0.018,0.672-0.098,1.342-0.239,2l1.847,0.754l0.987-2.414l7.467,3.041l-1.147,2.807l2.42,0.986l3.334-8.221l-2.42-0.986
	L171.547,117.887z"/>
<path fill="#005B7F" d="M177.707,105.127c-0.088-0.632-0.297-1.24-0.613-1.793c-0.324-0.551-0.758-1.027-1.273-1.4
	c-1.146-0.768-2.538-1.074-3.899-0.859c-0.547,0.105-1.062,0.333-1.507,0.667c-0.432,0.334-0.792,0.751-1.061,1.227
	c-0.28,0.507-0.479,1.054-0.594,1.62c-0.123,0.523-0.123,1.069,0,1.594l-2.514-0.761l1.021-5.013l-2.668-0.54l-1.572,7.747
	l6.826,1.787l1.193-1.234c-0.087-0.227-0.16-0.434-0.213-0.619c-0.051-0.169-0.092-0.34-0.121-0.514c-0.02-0.162-0.02-0.324,0-0.486
	c0.012-0.184,0.035-0.367,0.074-0.547c0.09-0.572,0.395-1.09,0.854-1.447c0.496-0.334,1.115-0.434,1.693-0.272
	c0.605,0.073,1.146,0.42,1.466,0.94c0.282,0.553,0.351,1.191,0.193,1.793c-0.101,0.562-0.351,1.086-0.72,1.521
	c-0.364,0.43-0.775,0.815-1.228,1.153l1.713,1.826c0.683-0.465,1.279-1.041,1.769-1.707c0.567-0.814,0.951-1.746,1.119-2.727
	C177.781,106.438,177.801,105.775,177.707,105.127z"/>
<circle fill="#005B7F" cx="170.174" cy="83.374" r="3.48"/>
<path fill="#005B7F" d="M29.394,86.854c1.922,0,3.48-1.558,3.48-3.48s-1.558-3.48-3.48-3.48s-3.48,1.558-3.48,3.48
	C25.913,85.295,27.471,86.854,29.394,86.854L29.394,86.854z"/>
</svg>
