<?xml version="1.0" encoding="UTF-8" standalone="no"?><!DOCTYPE svg PUBLIC "-//W3C//DTD SVG 1.1//EN" "http://www.w3.org/Graphics/SVG/1.1/DTD/svg11.dtd"><svg width="100%" height="100%" viewBox="0 0 275 53" version="1.1" xmlns="http://www.w3.org/2000/svg" xmlns:xlink="http://www.w3.org/1999/xlink" xml:space="preserve" xmlns:serif="http://www.serif.com/" style="fill-rule:evenodd;clip-rule:evenodd;stroke-linejoin:round;stroke-miterlimit:2;"><path d="M60.822,20.961c0,2.064 0.652,3.764 1.942,5.106c1.268,1.317 2.962,2.199 5.091,2.63c-0.001,-0 3.527,0.72 3.527,0.72c0.002,-0 0.004,0.001 0.006,0.001c0.885,0.169 1.56,0.476 2.013,0.949c0.42,0.44 0.633,0.952 0.633,1.538c0,0.751 -0.286,1.365 -0.859,1.839c-0.62,0.513 -1.524,0.747 -2.699,0.747c-0.572,-0 -1.11,-0.076 -1.616,-0.23c-0.517,-0.157 -1.001,-0.359 -1.45,-0.607c-0.455,-0.249 -0.875,-0.528 -1.261,-0.834c-0.394,-0.313 -0.753,-0.62 -1.078,-0.921c-0.21,-0.206 -0.458,-0.294 -0.743,-0.268c-0.289,0.027 -0.518,0.162 -0.68,0.416c0.001,-0.002 -2.251,2.893 -2.251,2.893c-0.168,0.216 -0.233,0.427 -0.233,0.619c-0,0.218 0.078,0.429 0.265,0.62c0.376,0.425 0.853,0.859 1.43,1.298c0.578,0.44 1.25,0.842 2.016,1.207c0.762,0.362 1.611,0.656 2.548,0.881c0.937,0.225 1.942,0.338 3.017,0.338c1.534,-0 2.892,-0.236 4.075,-0.701c1.193,-0.47 2.201,-1.101 3.027,-1.888c0.832,-0.794 1.459,-1.691 1.882,-2.69c0.423,-1.001 0.634,-2.016 0.634,-3.043c-0,-0.952 -0.168,-1.86 -0.503,-2.722c-0.334,-0.863 -0.817,-1.641 -1.447,-2.336c-0.626,-0.689 -1.403,-1.284 -2.334,-1.782c-0.918,-0.49 -1.979,-0.85 -3.186,-1.077l-3.523,-0.683c-0.785,-0.165 -1.382,-0.451 -1.775,-0.886c-0.369,-0.408 -0.552,-0.894 -0.552,-1.458c0,-0.351 0.078,-0.683 0.234,-0.996c0.162,-0.323 0.385,-0.606 0.668,-0.849c0.293,-0.251 0.656,-0.453 1.085,-0.61c0.439,-0.161 0.927,-0.239 1.463,-0.239c0.462,-0 0.912,0.055 1.352,0.165c0.445,0.111 0.862,0.261 1.251,0.45c0.39,0.189 0.735,0.394 1.035,0.617c0.289,0.214 0.531,0.426 0.725,0.64c0.204,0.249 0.452,0.36 0.731,0.36c0.271,-0 0.505,-0.096 0.702,-0.293c0.003,-0.003 0.006,-0.005 0.008,-0.008l2.471,-2.578c0.203,-0.185 0.294,-0.394 0.307,-0.605c0.012,-0.202 -0.047,-0.424 -0.224,-0.651c-0.001,-0.002 -0.003,-0.004 -0.005,-0.007c-0.737,-0.914 -1.83,-1.727 -3.291,-2.426c-1.443,-0.69 -3.141,-1.04 -5.098,-1.04c-1.264,-0 -2.459,0.216 -3.584,0.646c-1.126,0.43 -2.112,1.013 -2.96,1.747c-0.856,0.741 -1.534,1.623 -2.032,2.646c-0.502,1.028 -0.754,2.147 -0.754,3.355Zm151.797,5.112c0,1.916 0.337,3.708 1.009,5.375c0.673,1.671 1.609,3.123 2.806,4.358c1.198,1.236 2.614,2.209 4.249,2.921c1.634,0.711 3.387,1.068 5.258,1.068c2.071,0.025 3.98,-0.37 5.726,-1.181c1.744,-0.81 3.251,-1.925 4.521,-3.345c0.01,-0.011 0.02,-0.022 0.028,-0.034c0.152,-0.202 0.215,-0.428 0.19,-0.681c-0.027,-0.264 -0.145,-0.476 -0.353,-0.637c0.004,0.003 -2.817,-2.389 -2.817,-2.389c-0.211,-0.204 -0.454,-0.283 -0.718,-0.256c-0.265,0.026 -0.478,0.145 -0.638,0.354c-0.718,0.849 -1.573,1.524 -2.564,2.019c-0.985,0.493 -2.038,0.751 -3.158,0.774c-1.08,-0 -2.089,-0.207 -3.032,-0.622c-0.947,-0.418 -1.782,-0.999 -2.503,-1.743c-0.726,-0.748 -1.304,-1.621 -1.734,-2.619c-0.429,-0.993 -0.643,-2.054 -0.643,-3.182c0,-1.131 0.203,-2.195 0.61,-3.191c0.409,-0.998 0.964,-1.877 1.667,-2.637c0.699,-0.755 1.521,-1.352 2.468,-1.791c0.944,-0.438 1.944,-0.668 3,-0.691c1.163,-0.022 2.247,0.217 3.253,0.72c1.015,0.507 1.895,1.188 2.64,2.043c0.16,0.206 0.371,0.322 0.634,0.349c0.252,0.025 0.479,-0.039 0.68,-0.19c0.009,-0.006 0.017,-0.012 0.024,-0.019l2.835,-2.404c0.205,-0.159 0.322,-0.371 0.349,-0.634c0.025,-0.252 -0.038,-0.479 -0.19,-0.681c-0.008,-0.011 -0.018,-0.023 -0.027,-0.033c-1.246,-1.396 -2.723,-2.493 -4.431,-3.291c-1.708,-0.798 -3.571,-1.211 -5.591,-1.236c-1.896,-0.025 -3.668,0.307 -5.315,0.993c-1.648,0.687 -3.077,1.643 -4.288,2.866c-1.208,1.221 -2.168,2.653 -2.878,4.297c-0.711,1.646 -1.067,3.429 -1.067,5.35Zm-117.093,-0c0,1.916 0.337,3.708 1.009,5.375c0.673,1.671 1.61,3.123 2.807,4.358c1.198,1.236 2.614,2.209 4.248,2.921c1.636,0.711 3.389,1.068 5.262,1.068c1.894,-0 3.663,-0.344 5.308,-1.029c1.646,-0.686 3.086,-1.64 4.321,-2.862c1.233,-1.221 2.211,-2.653 2.934,-4.298c0.723,-1.645 1.098,-3.415 1.123,-5.31c0.025,-1.872 -0.313,-3.639 -1.012,-5.299c-0.697,-1.656 -1.65,-3.106 -2.858,-4.351c-1.21,-1.247 -2.637,-2.232 -4.283,-2.956c-1.646,-0.723 -3.416,-1.098 -5.31,-1.123c-1.897,-0.025 -3.668,0.307 -5.315,0.993c-1.648,0.687 -3.076,1.636 -4.287,2.847c-1.209,1.209 -2.169,2.642 -2.88,4.299c-0.71,1.658 -1.067,3.447 -1.067,5.367Zm-59.358,-13.074c-0.262,-0 -0.484,0.093 -0.667,0.276c-0.183,0.183 -0.275,0.405 -0.275,0.666l0,15.516c0,1.415 0.266,2.747 0.796,3.997c0.53,1.249 1.262,2.346 2.195,3.291c0.933,0.946 2.018,1.691 3.254,2.233c1.243,0.545 2.574,0.806 3.994,0.781c1.368,-0.025 2.652,-0.311 3.855,-0.855c1.2,-0.543 2.241,-1.27 3.125,-2.179c0.884,-0.909 1.585,-1.968 2.102,-3.18c0.519,-1.214 0.779,-2.505 0.779,-3.872l0,-15.732c0,-0.261 -0.092,-0.483 -0.276,-0.666c-0.183,-0.183 -0.405,-0.276 -0.666,-0.276l-3.672,-0c-0.244,-0 -0.465,0.082 -0.66,0.252c-0.215,0.189 -0.318,0.421 -0.318,0.69l0,15.732c0,0.646 -0.128,1.254 -0.387,1.824c-0.259,0.572 -0.609,1.064 -1.052,1.474c-0.442,0.411 -0.961,0.723 -1.555,0.939c-0.589,0.214 -1.215,0.288 -1.878,0.224c-0.583,-0.065 -1.122,-0.226 -1.618,-0.485c-0.493,-0.257 -0.916,-0.594 -1.269,-1.011c-0.36,-0.425 -0.643,-0.905 -0.85,-1.439c-0.205,-0.53 -0.307,-1.086 -0.307,-1.67l0,-15.588c0,-0.261 -0.092,-0.483 -0.276,-0.666c-0.183,-0.183 -0.405,-0.276 -0.666,-0.276l-3.708,-0Zm-22.248,0.072c-0.262,-0 -0.484,0.093 -0.667,0.276c-0.183,0.183 -0.275,0.405 -0.275,0.666l0,24.336c0,0.262 0.092,0.484 0.275,0.667c0.183,0.183 0.405,0.275 0.667,0.275l3.708,-0c0.313,-0 0.54,-0.098 0.697,-0.243c0.17,-0.158 0.281,-0.384 0.281,-0.699l0,-9.354l8.49,-0c0.315,-0 0.541,-0.11 0.699,-0.281c0.144,-0.157 0.243,-0.383 0.243,-0.697l0,-3.672c0,-0.308 -0.103,-0.53 -0.258,-0.684c-0.154,-0.155 -0.376,-0.258 -0.684,-0.258l-8.49,-0l0,-4.74l8.382,-0c0.639,-0 1.168,-0.253 1.584,-0.764c0.003,-0.004 0.006,-0.008 0.009,-0.013l2.661,-3.488c0.25,-0.315 0.255,-0.619 0.098,-0.902c-0.15,-0.27 -0.393,-0.425 -0.752,-0.425l-16.668,-0Zm113.754,25.278c0,0.262 0.092,0.484 0.275,0.667c0.183,0.183 0.405,0.275 0.667,0.275l3.708,-0c0.313,-0 0.54,-0.098 0.697,-0.243c0.17,-0.158 0.281,-0.384 0.281,-0.699l0,-15.489l12.009,15.656c0.003,0.003 0.006,0.007 0.009,0.011c0.416,0.511 0.945,0.764 1.584,0.764l3.42,-0c0.308,-0 0.53,-0.103 0.684,-0.257c0.155,-0.154 0.258,-0.376 0.258,-0.685l0,-24.336c0,-0.308 -0.103,-0.53 -0.258,-0.684c-0.154,-0.155 -0.376,-0.258 -0.684,-0.258l-3.708,-0c-0.308,-0 -0.53,0.103 -0.685,0.258c-0.154,0.154 -0.257,0.376 -0.257,0.684l0,15.493l-12.046,-15.66c-0.003,-0.003 -0.006,-0.007 -0.008,-0.01c-0.416,-0.512 -0.945,-0.765 -1.584,-0.765l-3.42,-0c-0.262,-0 -0.484,0.093 -0.667,0.276c-0.183,0.183 -0.275,0.405 -0.275,0.666l0,24.336Zm-42.006,-25.278c-0.262,-0 -0.484,0.093 -0.667,0.276c-0.183,0.183 -0.275,0.405 -0.275,0.666l0,24.336c0,0.262 0.092,0.484 0.275,0.667c0.183,0.183 0.405,0.275 0.667,0.275l3.708,-0c0.313,-0 0.54,-0.098 0.697,-0.243c0.17,-0.158 0.281,-0.384 0.281,-0.699l0,-24.336c0,-0.315 -0.111,-0.541 -0.281,-0.699c-0.157,-0.144 -0.384,-0.243 -0.697,-0.243l-3.708,-0Zm155.787,25.278c0,0.262 0.092,0.484 0.275,0.667c0.183,0.183 0.405,0.275 0.666,0.275l3.708,-0c0.314,-0 0.541,-0.098 0.697,-0.243c0.171,-0.158 0.281,-0.384 0.281,-0.699l0,-9.354l9.313,-0l0,9.354c0,0.262 0.092,0.484 0.275,0.667c0.183,0.183 0.405,0.275 0.666,0.275l3.744,-0c0.262,-0 0.484,-0.092 0.667,-0.275c0.183,-0.183 0.275,-0.405 0.275,-0.667l0,-24.336c0,-0.261 -0.092,-0.483 -0.275,-0.666c-0.183,-0.183 -0.405,-0.276 -0.667,-0.276l-3.744,-0c-0.261,-0 -0.483,0.093 -0.666,0.276c-0.183,0.183 -0.275,0.405 -0.275,0.666l0,9.39l-9.313,-0l0,-9.39c0,-0.315 -0.11,-0.541 -0.281,-0.699c-0.156,-0.144 -0.383,-0.243 -0.697,-0.243l-3.708,-0c-0.261,-0 -0.483,0.093 -0.666,0.276c-0.183,0.183 -0.275,0.405 -0.275,0.666l0,24.336Zm-50.076,-24.336l0,24.336c0,0.262 0.092,0.484 0.275,0.667c0.183,0.183 0.405,0.275 0.666,0.275l13.068,-0c0.64,-0 1.169,-0.253 1.584,-0.764c0.003,-0.004 0.007,-0.008 0.01,-0.013l2.646,-3.468c0.246,-0.262 0.286,-0.558 0.123,-0.885c-0.151,-0.301 -0.401,-0.462 -0.763,-0.462l-11.982,-0l0,-4.704l8.49,-0c0.315,-0 0.542,-0.11 0.699,-0.281c0.145,-0.157 0.243,-0.383 0.243,-0.697l0,-3.672c0,-0.308 -0.103,-0.53 -0.257,-0.684c-0.154,-0.155 -0.376,-0.258 -0.685,-0.258l-8.49,-0l0,-4.74l10.866,-0c0.309,-0 0.531,-0.103 0.685,-0.257c0.154,-0.154 0.257,-0.376 0.257,-0.685l0,-3.708c0,-0.308 -0.103,-0.53 -0.257,-0.684c-0.154,-0.155 -0.376,-0.258 -0.685,-0.258l-15.552,-0c-0.261,-0 -0.483,0.093 -0.666,0.276c-0.183,0.183 -0.275,0.405 -0.275,0.666Zm-24.804,-0.072l0,3.708c0,0.262 0.092,0.484 0.275,0.667c0.183,0.183 0.405,0.275 0.666,0.275l6.115,-0l0,19.686c0,0.309 0.103,0.531 0.257,0.685c0.154,0.154 0.376,0.257 0.684,0.257l3.708,-0c0.309,-0 0.531,-0.103 0.685,-0.257c0.154,-0.154 0.257,-0.376 0.257,-0.685l0,-19.686l7.518,-0c0.359,-0 0.603,-0.155 0.752,-0.424c0.158,-0.284 0.152,-0.589 -0.098,-0.904c0.001,0.001 -2.66,-3.487 -2.66,-3.487c-0.003,-0.004 -0.007,-0.008 -0.01,-0.012c-0.415,-0.512 -0.944,-0.765 -1.584,-0.765l-15.624,-0c-0.261,-0 -0.483,0.093 -0.666,0.276c-0.183,0.183 -0.275,0.405 -0.275,0.666Zm-65.421,12.312c0,-1.131 0.203,-2.195 0.61,-3.191c0.408,-0.998 0.963,-1.877 1.666,-2.637c0.699,-0.755 1.522,-1.352 2.469,-1.791c0.941,-0.438 1.939,-0.667 2.992,-0.691c1.055,0.001 2.058,0.214 3.011,0.64c0.961,0.429 1.803,1.011 2.527,1.746c0.724,0.736 1.301,1.602 1.731,2.598c0.428,0.993 0.642,2.041 0.642,3.146l0,0.011c0.023,1.105 -0.169,2.16 -0.575,3.164c-0.407,1.008 -0.967,1.891 -1.681,2.65c-0.712,0.758 -1.543,1.362 -2.493,1.815c-0.94,0.447 -1.937,0.683 -2.988,0.706c-1.078,-0 -2.086,-0.213 -3.027,-0.638c-0.949,-0.43 -1.785,-1.017 -2.508,-1.763c-0.726,-0.748 -1.303,-1.621 -1.734,-2.619c-0.428,-0.992 -0.642,-2.041 -0.642,-3.146Z" style="fill:#fff;fill-rule:nonzero;"/><path d="M0.942,0l29.223,0c0.359,0 0.603,0.155 0.752,0.424c0.158,0.284 0.152,0.589 -0.098,0.904c0.001,-0.001 -2.66,3.487 -2.66,3.487c-0.003,0.004 -0.007,0.008 -0.01,0.012c-0.415,0.512 -0.944,0.765 -1.584,0.765l-20.973,0.036l0,8.382c0,0.639 -0.253,1.168 -0.764,1.584c-0.004,0.003 -0.008,0.006 -0.013,0.009l-3.488,2.661c-0.315,0.25 -0.619,0.255 -0.902,0.098c-0.27,-0.15 -0.425,-0.393 -0.425,-0.752l0,-16.668c0,-0.262 0.093,-0.484 0.276,-0.667c0.183,-0.183 0.405,-0.275 0.666,-0.275Z" style="fill:#7370c8;"/><path d="M274.058,52.202l-29.223,0c-0.359,0 -0.603,-0.155 -0.752,-0.424c-0.158,-0.284 -0.152,-0.589 0.098,-0.904c-0.001,0.001 2.66,-3.487 2.66,-3.487c0.003,-0.004 0.007,-0.008 0.01,-0.012c0.415,-0.512 0.944,-0.765 1.584,-0.765l20.973,-0.036l-0,-8.382c-0,-0.639 0.253,-1.168 0.764,-1.584c0.004,-0.003 0.008,-0.006 0.013,-0.009l3.488,-2.661c0.315,-0.25 0.619,-0.255 0.902,-0.098c0.27,0.15 0.425,0.393 0.425,0.752l0,16.668c0,0.262 -0.093,0.484 -0.276,0.667c-0.183,0.183 -0.405,0.275 -0.666,0.275Z" style="fill:#7370c8;"/></svg>