<?xml version="1.0" encoding="UTF-8" standalone="no"?><!DOCTYPE svg PUBLIC "-//W3C//DTD SVG 1.1//EN" "http://www.w3.org/Graphics/SVG/1.1/DTD/svg11.dtd"><svg width="100%" height="100%" viewBox="0 0 50 50" version="1.1" xmlns="http://www.w3.org/2000/svg" xmlns:xlink="http://www.w3.org/1999/xlink" xml:space="preserve" xmlns:serif="http://www.serif.com/" style="fill-rule:evenodd;clip-rule:evenodd;stroke-linejoin:round;stroke-miterlimit:2;"><path d="M13.437,20.222c-0.059,-0.048 -0.112,-0.104 -0.159,-0.169c-0.29,-0.404 -0.198,-0.966 0.205,-1.257l1.623,-1.168c0.405,-0.292 0.966,-0.197 1.256,0.205c0.29,0.404 0.198,0.966 -0.205,1.256l-1.294,0.931c0.402,-0.035 0.808,-0.053 1.217,-0.053c3.628,0 7.038,1.413 9.603,3.977c4.827,4.828 5.253,12.417 1.277,17.732l1.766,-0.761c0.456,-0.197 0.986,0.013 1.183,0.47c0.197,0.457 -0.014,0.986 -0.47,1.183l-1.837,0.791c-0.116,0.05 -0.237,0.074 -0.356,0.074c-0.349,0 -0.68,-0.204 -0.826,-0.545c-0.065,-0.149 -0.085,-0.307 -0.068,-0.457c-0.213,0.246 -0.436,0.485 -0.669,0.718c-0.108,0.108 -0.218,0.215 -0.329,0.319c0.127,0.429 -0.085,0.896 -0.507,1.077l-1.837,0.792c-0.1,0.043 -0.204,0.067 -0.306,0.073c-2.002,1.121 -4.267,1.717 -6.624,1.717c-3.628,0 -7.038,-1.412 -9.603,-3.978c-2.564,-2.564 -3.977,-5.975 -3.977,-9.602c0,-3.628 1.413,-7.038 3.977,-9.603c0.915,-0.915 1.937,-1.683 3.039,-2.293l1.532,-1.102c0.326,-0.235 0.754,-0.22 1.059,0.005c0.436,-0.133 0.88,-0.243 1.33,-0.332Zm-3.135,3.053c-0.924,0.522 -1.781,1.172 -2.551,1.942c-2.226,2.225 -3.451,5.183 -3.451,8.33c0,3.147 1.225,6.105 3.451,8.33c2.224,2.225 5.182,3.45 8.329,3.45c3.146,0 6.105,-1.225 8.33,-3.45c4.593,-4.593 4.593,-12.067 0,-16.66c-2.225,-2.225 -5.184,-3.45 -8.33,-3.45c-1.996,0 -3.915,0.493 -5.619,1.42c-0.051,0.036 -0.105,0.065 -0.159,0.088Zm5.778,18.71c-2.162,0.001 -4.323,-0.822 -5.97,-2.468c-1.595,-1.595 -2.472,-3.715 -2.472,-5.97c0,-2.255 0.877,-4.375 2.472,-5.97c1.595,-1.594 3.715,-2.473 5.97,-2.473c2.255,0 4.375,0.879 5.97,2.473l0,0.001c1.594,1.594 2.472,3.714 2.472,5.969c0,2.255 -0.878,4.375 -2.472,5.97c-1.646,1.646 -3.809,2.468 -5.97,2.468Zm15.757,-0.53c-0.349,0 -0.679,-0.205 -0.825,-0.545c-0.198,-0.456 0.013,-0.986 0.47,-1.182l1.836,-0.791c0.454,-0.198 0.987,0.014 1.183,0.47c0.197,0.457 -0.014,0.986 -0.47,1.183l-1.838,0.791c-0.115,0.05 -0.236,0.074 -0.356,0.074Zm-15.757,-14.551c-1.774,0 -3.442,0.692 -4.696,1.946c-1.255,1.255 -1.947,2.923 -1.947,4.697c0,1.774 0.692,3.442 1.947,4.697c1.254,1.255 2.922,1.945 4.696,1.945c1.774,0 3.442,-0.69 4.696,-1.945c1.255,-1.255 1.947,-2.923 1.947,-4.697c0,-1.774 -0.692,-3.442 -1.947,-4.696l0,-0.001c-1.254,-1.254 -2.922,-1.946 -4.696,-1.946Zm20.351,12.573c-0.349,0 -0.68,-0.204 -0.827,-0.544c-0.198,-0.457 0.013,-0.986 0.47,-1.183l1.837,-0.791c0.456,-0.196 0.985,0.014 1.183,0.471c0.197,0.456 -0.014,0.986 -0.47,1.182l-1.837,0.791c-0.116,0.05 -0.237,0.074 -0.356,0.074Zm-20.351,-0.057c-0.339,0 -0.679,-0.028 -1.01,-0.086c-0.489,-0.085 -0.817,-0.551 -0.732,-1.041c0.085,-0.489 0.542,-0.819 1.041,-0.732c0.457,0.079 0.945,0.08 1.402,0c0.492,-0.082 0.956,0.243 1.041,0.732c0.085,0.489 -0.242,0.956 -0.732,1.041c-0.329,0.058 -0.669,0.086 -1.01,0.086Zm-2.861,-0.903c-0.179,0 -0.361,-0.053 -0.518,-0.164c-0.274,-0.194 -0.534,-0.413 -0.774,-0.653c-0.237,-0.235 -0.455,-0.496 -0.652,-0.773c-0.287,-0.406 -0.191,-0.968 0.215,-1.255c0.404,-0.285 0.968,-0.19 1.254,0.215c0.138,0.194 0.29,0.376 0.455,0.54c0.168,0.168 0.349,0.321 0.539,0.455c0.406,0.286 0.503,0.848 0.217,1.254c-0.175,0.248 -0.453,0.381 -0.736,0.381Zm5.722,0c-0.283,0 -0.561,-0.133 -0.736,-0.381c-0.286,-0.406 -0.19,-0.968 0.217,-1.254c0.19,-0.134 0.371,-0.287 0.538,-0.454c0.166,-0.165 0.318,-0.347 0.456,-0.541c0.286,-0.406 0.849,-0.501 1.254,-0.215c0.406,0.287 0.502,0.849 0.215,1.255c-0.197,0.277 -0.415,0.538 -0.653,0.774c-0.239,0.239 -0.499,0.458 -0.773,0.652c-0.157,0.111 -0.339,0.164 -0.518,0.164Zm21.191,-2.053c-0.231,-0.139 -0.446,-0.307 -0.642,-0.503c-0.627,-0.627 -0.973,-1.461 -0.973,-2.349c0,-0.888 0.346,-1.722 0.973,-2.35c1.136,-1.136 3.034,-1.244 4.315,-0.326c0.18,-0.177 0.435,-0.277 0.71,-0.254c0.495,0.043 0.861,0.48 0.817,0.975l-0.169,1.925l0,0.03c0,0.888 -0.346,1.722 -0.973,2.349c-0.346,0.346 -0.755,0.606 -1.2,0.77l-1.612,0.694c-0.115,0.05 -0.237,0.074 -0.356,0.074c-0.348,0 -0.679,-0.204 -0.826,-0.544c-0.069,-0.161 -0.088,-0.33 -0.064,-0.491Zm-24.052,0.406c-0.887,0 -1.722,-0.346 -2.35,-0.974c-0.627,-0.627 -0.972,-1.461 -0.972,-2.349c0,-0.888 0.345,-1.722 0.972,-2.35c1.257,-1.257 3.446,-1.255 4.701,0c0.626,0.628 0.972,1.462 0.972,2.35c0,0.888 -0.346,1.722 -0.972,2.349c-0.628,0.628 -1.463,0.974 -2.351,0.974Zm-4.901,-1.567c-0.43,0 -0.811,-0.31 -0.886,-0.748c-0.058,-0.332 -0.087,-0.672 -0.087,-1.008c0,-0.337 0.029,-0.676 0.087,-1.008c0.084,-0.49 0.55,-0.822 1.039,-0.734c0.49,0.084 0.819,0.549 0.734,1.039c-0.04,0.232 -0.059,0.468 -0.059,0.703c0,0.234 0.019,0.471 0.059,0.703c0.085,0.489 -0.244,0.955 -0.734,1.039c-0.051,0.009 -0.103,0.014 -0.153,0.014Zm9.802,-0c-0.05,-0 -0.101,-0.005 -0.153,-0.014c-0.49,-0.084 -0.819,-0.55 -0.734,-1.039c0.04,-0.232 0.059,-0.469 0.059,-0.703c0,-0.235 -0.019,-0.471 -0.059,-0.703c-0.085,-0.49 0.244,-0.955 0.734,-1.039c0.483,-0.088 0.955,0.244 1.039,0.734c0.058,0.332 0.087,0.671 0.087,1.008c0,0.336 -0.029,0.676 -0.087,1.008c-0.075,0.438 -0.456,0.748 -0.886,0.748Zm22.38,-1.761c-0.017,-0.366 -0.165,-0.728 -0.444,-1.007c-0.297,-0.297 -0.687,-0.446 -1.077,-0.446c-0.39,0 -0.78,0.149 -1.076,0.446c-0.594,0.594 -0.594,1.56 0,2.154c0.428,0.428 1.048,0.547 1.584,0.359l0.155,-0.067c0.009,-0.004 0.019,-0.008 0.028,-0.012c0.139,-0.07 0.27,-0.164 0.386,-0.28c0.292,-0.292 0.44,-0.674 0.445,-1.057c-0.002,-0.03 -0.002,-0.059 -0.001,-0.09Zm-27.281,-1.518c-0.39,0 -0.779,0.149 -1.076,0.446c-0.594,0.594 -0.594,1.56 0,2.154c0.595,0.594 1.56,0.593 2.153,0c0.594,-0.594 0.594,-1.56 0,-2.154c-0.297,-0.297 -0.686,-0.446 -1.077,-0.446Zm-4.071,-0.437c-0.18,0 -0.361,-0.053 -0.519,-0.165c-0.405,-0.287 -0.502,-0.848 -0.216,-1.254c0.197,-0.278 0.417,-0.539 0.655,-0.775c0.235,-0.237 0.496,-0.456 0.772,-0.651c0.407,-0.288 0.969,-0.188 1.254,0.216c0.286,0.406 0.189,0.968 -0.217,1.254c-0.191,0.136 -0.372,0.288 -0.538,0.454c-0.166,0.166 -0.318,0.347 -0.455,0.54c-0.176,0.249 -0.454,0.381 -0.736,0.381Zm8.142,0c-0.282,0 -0.56,-0.132 -0.736,-0.381c-0.137,-0.193 -0.289,-0.374 -0.453,-0.538c-0.168,-0.168 -0.349,-0.32 -0.54,-0.456c-0.407,-0.286 -0.503,-0.848 -0.217,-1.254c0.285,-0.405 0.847,-0.505 1.254,-0.216c0.276,0.195 0.537,0.414 0.774,0.653c0.236,0.234 0.456,0.495 0.653,0.773c0.286,0.406 0.189,0.967 -0.216,1.254c-0.158,0.112 -0.339,0.165 -0.519,0.165Zm-3.215,-2.04c-0.05,0 -0.102,-0.005 -0.154,-0.014c-0.463,-0.079 -0.94,-0.079 -1.405,0.001c-0.489,0.086 -0.955,-0.245 -1.039,-0.735c-0.085,-0.49 0.244,-0.955 0.734,-1.04c0.667,-0.114 1.354,-0.114 2.017,0.001c0.489,0.084 0.818,0.55 0.733,1.039c-0.075,0.438 -0.456,0.748 -0.886,0.748Zm27.762,-0.058c-0.026,0 -0.053,-0.001 -0.079,-0.003c-0.495,-0.043 -0.861,-0.48 -0.818,-0.975l0.173,-1.992c0.043,-0.495 0.492,-0.861 0.975,-0.818c0.495,0.043 0.861,0.479 0.818,0.974l-0.173,1.992c-0.041,0.469 -0.434,0.822 -0.896,0.822Zm0.436,-4.981c-0.027,0 -0.053,-0.001 -0.08,-0.003c-0.496,-0.044 -0.862,-0.48 -0.818,-0.975l0.175,-1.992c0.044,-0.495 0.471,-0.862 0.976,-0.818c0.495,0.044 0.861,0.48 0.817,0.975l-0.175,1.992c-0.041,0.468 -0.433,0.821 -0.895,0.821Zm-13.137,-18.72c0.22,-0.285 0.46,-0.557 0.718,-0.815c1.594,-1.594 3.715,-2.473 5.969,-2.473c2.255,0 4.375,0.879 5.97,2.473l-0,0.001c1.595,1.594 2.473,3.714 2.473,5.969c-0,0.418 -0.03,0.832 -0.09,1.239l-0.135,1.543c-0.03,0.344 -0.248,0.625 -0.545,0.751c-0.203,0.44 -0.444,0.863 -0.723,1.265c0.061,-0.007 0.124,-0.008 0.189,-0.002c0.495,0.044 0.861,0.48 0.818,0.975l-0.175,1.993c-0.041,0.468 -0.434,0.821 -0.896,0.821c-0.026,0 -0.053,-0.001 -0.08,-0.004c-0.495,-0.043 -0.861,-0.48 -0.817,-0.975l0.16,-1.82c-0.059,0.062 -0.118,0.123 -0.179,0.184c-1.595,1.594 -3.715,2.473 -5.97,2.473c-2.254,0 -4.375,-0.879 -5.969,-2.473c-1.595,-1.595 -2.473,-3.715 -2.473,-5.97c-0,-0.771 0.103,-1.525 0.301,-2.248c-0.097,0.034 -0.198,0.051 -0.299,0.051c-0.28,0 -0.556,-0.13 -0.731,-0.374c-0.29,-0.404 -0.199,-0.966 0.205,-1.256l1.623,-1.168c0.198,-0.143 0.433,-0.193 0.656,-0.16Zm-9.96,6.854l1.187,-0.854c0.405,-0.291 0.966,-0.198 1.256,0.205c0.072,0.101 0.121,0.211 0.147,0.325c0.539,0.144 1.044,0.419 1.451,0.826c0.627,0.627 0.973,1.462 0.973,2.35c0,0.887 -0.346,1.722 -0.973,2.349c-0.628,0.628 -1.463,0.974 -2.35,0.974c-0.887,0 -1.722,-0.346 -2.35,-0.974c-0.52,-0.52 -0.846,-1.182 -0.943,-1.899c-0.058,0.085 -0.131,0.162 -0.219,0.225l-1.623,1.168c-0.16,0.115 -0.343,0.17 -0.525,0.17c-0.28,0 -0.555,-0.13 -0.731,-0.374c-0.29,-0.404 -0.198,-0.966 0.205,-1.257l1.623,-1.168c0.405,-0.29 0.967,-0.198 1.256,0.205c0.01,0.013 0.019,0.027 0.027,0.04c0.111,-0.682 0.432,-1.311 0.93,-1.809c0.199,-0.199 0.421,-0.366 0.659,-0.502Zm23.239,-0.866c0.034,-0.274 0.051,-0.552 0.051,-0.833c0,-1.774 -0.691,-3.442 -1.946,-4.696l0,-0.001c-1.254,-1.254 -2.922,-1.946 -4.697,-1.946c-1.774,0 -3.442,0.692 -4.696,1.946c-1.255,1.255 -1.946,2.923 -1.946,4.697c0,1.774 0.691,3.442 1.946,4.697c1.254,1.254 2.922,1.946 4.696,1.946c1.775,0 3.443,-0.692 4.697,-1.946c1.012,-1.012 1.657,-2.291 1.869,-3.679l0.005,-0.058c0.004,-0.044 0.011,-0.086 0.021,-0.127Zm-22.628,2.643c-0.591,0.596 -0.59,1.559 0.003,2.152c0.593,0.593 1.559,0.594 2.154,0c0.593,-0.594 0.593,-1.56 0,-2.155c-0.297,-0.296 -0.687,-0.445 -1.077,-0.445c-0.232,0 -0.464,0.053 -0.676,0.157l-0.401,0.289l-0.003,0.002Zm16.037,-0.153c-0.887,0 -1.722,-0.346 -2.35,-0.974c-0.627,-0.627 -0.973,-1.461 -0.973,-2.349c0,-0.888 0.346,-1.722 0.973,-2.35c1.255,-1.256 3.443,-1.257 4.7,0c0.627,0.628 0.973,1.462 0.973,2.35c0,0.888 -0.346,1.722 -0.973,2.349c-0.628,0.628 -1.463,0.974 -2.35,0.974Zm0,-4.846c-0.39,0 -0.78,0.149 -1.077,0.446c-0.593,0.594 -0.593,1.56 0,2.154c0.593,0.593 1.559,0.595 2.154,0c0.593,-0.594 0.593,-1.56 0,-2.154c-0.297,-0.297 -0.687,-0.446 -1.077,-0.446Zm-12.5,2.246c-0.28,0 -0.555,-0.129 -0.731,-0.374c-0.29,-0.403 -0.198,-0.966 0.205,-1.256l1.624,-1.168c0.405,-0.292 0.967,-0.199 1.256,0.205c0.29,0.403 0.198,0.966 -0.205,1.256l-1.624,1.168c-0.159,0.115 -0.343,0.169 -0.525,0.169Z" style="fill:#fff;fill-rule:nonzero;"/></svg>