<?xml version="1.0" encoding="UTF-8" standalone="no"?><!DOCTYPE svg PUBLIC "-//W3C//DTD SVG 1.1//EN" "http://www.w3.org/Graphics/SVG/1.1/DTD/svg11.dtd"><svg width="100%" height="100%" viewBox="0 0 50 50" version="1.1" xmlns="http://www.w3.org/2000/svg" xmlns:xlink="http://www.w3.org/1999/xlink" xml:space="preserve" xmlns:serif="http://www.serif.com/" style="fill-rule:evenodd;clip-rule:evenodd;stroke-linejoin:round;stroke-miterlimit:2;"><path d="M39.228,43.622l-22.704,0c-0.102,0 -0.203,-0.017 -0.3,-0.051l-4.766,-1.682c-0.359,-0.127 -0.6,-0.467 -0.6,-0.849c0,-0.381 0.241,-0.721 0.6,-0.848l4.766,-1.682c0.097,-0.034 0.198,-0.051 0.3,-0.051l22.704,0c0.497,0 0.9,0.403 0.9,0.9l0,3.363c0,0.497 -0.403,0.9 -0.9,0.9Zm-6.183,-3.363l-16.367,0l-2.215,0.781l2.215,0.782l16.367,0l0,-1.563Zm1.801,0l0,1.563l3.481,0l0,-1.563l-3.481,0Zm12.86,-3.968l-43.093,0c-1.992,0 -3.613,-1.62 -3.613,-3.612l0,-0.397c0,-1.992 1.621,-3.612 3.613,-3.612l43.093,0c0.497,0 0.901,0.403 0.901,0.9l0,5.821c0,0.497 -0.404,0.9 -0.901,0.9Zm-5.801,-5.821l0,1.321c0,0.497 -0.404,0.9 -0.901,0.9c-0.497,0 -0.9,-0.403 -0.9,-0.9l0,-1.321l-3.37,0l0,1.321c0,0.497 -0.404,0.9 -0.901,0.9c-0.497,0 -0.9,-0.403 -0.9,-0.9l0,-1.321l-3.369,0l0,1.321c0,0.497 -0.404,0.9 -0.901,0.9c-0.497,0 -0.9,-0.403 -0.9,-0.9l0,-1.321l-3.37,0l0,1.321c0,0.497 -0.403,0.9 -0.901,0.9c-0.497,0 -0.9,-0.403 -0.9,-0.9l0,-1.321l-3.369,0l0,1.321c0,0.497 -0.403,0.9 -0.9,0.9c-0.498,0 -0.901,-0.403 -0.901,-0.9l0,-1.321l-3.37,0l0,1.321c0,0.497 -0.403,0.9 -0.9,0.9c-0.497,0 -0.901,-0.403 -0.901,-0.9l0,-1.321l-3.369,0l0,1.321c0,0.497 -0.403,0.9 -0.9,0.9c-0.497,0 -0.901,-0.403 -0.901,-0.9l0,-1.321l-4.468,0c-0.999,0 -1.812,0.813 -1.812,1.812l0,0.397c0,0.999 0.813,1.813 1.812,1.813l42.193,0l0,-4.022l-4.901,0Zm-35.83,2.91l-1.149,0c-0.497,0 -0.9,-0.403 -0.9,-0.9c0,-0.497 0.403,-0.9 0.9,-0.9l1.149,0c0.497,0 0.9,0.403 0.9,0.9c0,0.497 -0.403,0.9 -0.9,0.9Zm0.388,-7.158l-1,0c-0.497,0 -0.9,-0.403 -0.9,-0.9c0,-0.497 0.403,-0.9 0.9,-0.9l1,0c0.497,0 0.901,0.403 0.901,0.9c0,0.497 -0.404,0.9 -0.901,0.9Zm37.681,0l-1,0c-0.497,0 -0.901,-0.403 -0.901,-0.9c0,-0.497 0.404,-0.9 0.901,-0.9l1,0c0.497,0 0.9,0.403 0.9,0.9c0,0.497 -0.403,0.9 -0.9,0.9Zm-32.855,0l-1.93,0c-0.497,0 -0.901,-0.403 -0.901,-0.9c0,-0.497 0.404,-0.9 0.901,-0.9l1.93,0c0.497,0 0.901,0.403 0.901,0.9c0,0.497 -0.404,0.9 -0.901,0.9Zm4.827,0l-1.931,0c-0.497,0 -0.901,-0.403 -0.901,-0.9c0,-0.497 0.404,-0.9 0.901,-0.9l1.931,0c0.497,0 0.9,0.403 0.9,0.9c0,0.497 -0.403,0.9 -0.9,0.9Zm4.826,0l-1.93,0c-0.497,0 -0.9,-0.403 -0.9,-0.9c0,-0.497 0.403,-0.9 0.9,-0.9l1.93,0c0.497,0 0.9,0.403 0.9,0.9c0,0.497 -0.403,0.9 -0.9,0.9Zm4.827,0l-1.931,0c-0.497,0 -0.9,-0.403 -0.9,-0.9c0,-0.497 0.403,-0.9 0.9,-0.9l1.931,0c0.497,0 0.9,0.403 0.9,0.9c0,0.497 -0.403,0.9 -0.9,0.9Zm4.826,0l-1.931,0c-0.497,0 -0.9,-0.403 -0.9,-0.9c0,-0.497 0.403,-0.9 0.9,-0.9l1.931,0c0.497,0 0.9,0.403 0.9,0.9c0,0.497 -0.403,0.9 -0.9,0.9Zm4.826,0l-1.93,0c-0.498,0 -0.901,-0.403 -0.901,-0.9c0,-0.497 0.403,-0.9 0.901,-0.9l1.93,0c0.497,0 0.901,0.403 0.901,0.9c0,0.497 -0.404,0.9 -0.901,0.9Zm4.826,0l-1.929,0c-0.497,0 -0.901,-0.403 -0.901,-0.9c0,-0.497 0.404,-0.9 0.901,-0.9l1.929,0c0.497,0 0.901,0.403 0.901,0.9c0,0.497 -0.404,0.9 -0.901,0.9Zm-9.12,-3.421c-0.497,0 -0.9,-0.403 -0.9,-0.9c0,-2.991 -2.433,-5.424 -5.424,-5.424c-2.991,0 -5.424,2.433 -5.424,5.424c0,0.497 -0.403,0.9 -0.9,0.9c-0.497,0 -0.901,-0.403 -0.901,-0.9c0,-3.983 3.242,-7.224 7.225,-7.224c3.983,0 7.225,3.241 7.225,7.224c0,0.497 -0.404,0.9 -0.901,0.9Zm9.177,0c-0.497,0 -0.9,-0.403 -0.9,-0.9l0,-1.447l-2.802,0c-0.43,0 -0.8,-0.304 -0.883,-0.725c-0.285,-1.442 -0.845,-2.791 -1.661,-4.011c-0.239,-0.357 -0.192,-0.833 0.111,-1.137l1.983,-1.981l-2.047,-2.047l-1.982,1.981c-0.305,0.306 -0.779,0.351 -1.137,0.112c-1.22,-0.817 -2.57,-1.376 -4.01,-1.661c-0.422,-0.083 -0.726,-0.453 -0.726,-0.883l0,-2.802l-2.893,0l0,2.802c0,0.43 -0.304,0.8 -0.726,0.883c-1.441,0.286 -2.791,0.844 -4.011,1.661c-0.357,0.24 -0.833,0.194 -1.137,-0.112l-1.981,-1.981l-2.047,2.047l1.982,1.981c0.304,0.304 0.35,0.78 0.111,1.137c-0.817,1.222 -1.376,2.571 -1.661,4.011c-0.083,0.421 -0.453,0.725 -0.883,0.725l-2.802,0l0,1.447c0,0.497 -0.403,0.9 -0.9,0.9c-0.497,0 -0.9,-0.403 -0.9,-0.9l0,-2.347c0,-0.497 0.403,-0.9 0.9,-0.9l2.984,0c0.301,-1.163 0.759,-2.271 1.371,-3.308l-2.111,-2.11c-0.351,-0.351 -0.351,-0.921 0,-1.272l3.32,-3.32c0.168,-0.169 0.398,-0.263 0.636,-0.263c0.239,0 0.468,0.094 0.637,0.263l2.109,2.11c1.035,-0.61 2.144,-1.069 3.308,-1.369l0,-2.985c0,-0.497 0.403,-0.9 0.9,-0.9l4.695,0c0.497,0 0.9,0.403 0.9,0.9l0,2.985c1.164,0.3 2.272,0.759 3.307,1.369l2.11,-2.11c0.352,-0.351 0.922,-0.351 1.274,0l3.319,3.32c0.169,0.168 0.264,0.397 0.264,0.636c0,0.239 -0.096,0.468 -0.264,0.636l-2.111,2.11c0.611,1.036 1.069,2.144 1.37,3.308l2.984,0c0.497,0 0.9,0.403 0.9,0.9l0,2.347c0,0.497 -0.403,0.9 -0.9,0.9Z" style="fill:#fff;fill-rule:nonzero;"/></svg>