<?xml version="1.0" encoding="UTF-8" standalone="no"?><!DOCTYPE svg PUBLIC "-//W3C//DTD SVG 1.1//EN" "http://www.w3.org/Graphics/SVG/1.1/DTD/svg11.dtd"><svg width="100%" height="100%" viewBox="0 0 50 50" version="1.1" xmlns="http://www.w3.org/2000/svg" xmlns:xlink="http://www.w3.org/1999/xlink" xml:space="preserve" xmlns:serif="http://www.serif.com/" style="fill-rule:evenodd;clip-rule:evenodd;stroke-linejoin:round;stroke-miterlimit:2;"><path d="M17.628,32.523l0,-0.065c0,-0.322 -0.171,-0.619 -0.45,-0.78l-4.829,-2.788c-0.14,-0.08 -0.295,-0.121 -0.45,-0.121c-0.156,0 -0.311,0.041 -0.451,0.121l-3.585,2.071c-0.523,0.301 -0.79,0.88 -0.678,1.475c0.112,0.594 0.57,1.037 1.168,1.129l2.392,0.367c0.654,0.101 1.129,0.654 1.129,1.315c0,0.661 -0.475,1.213 -1.129,1.313l-2.393,0.367c-0.597,0.092 -1.055,0.535 -1.167,1.128c-0.112,0.595 0.154,1.174 0.677,1.477l3.587,2.07c0.278,0.16 0.62,0.16 0.9,0l4.829,-2.788c0.279,-0.16 0.45,-0.458 0.45,-0.779l0,-0.066l15.273,0c0.497,0 0.9,-0.403 0.9,-0.9c0,-0.497 -0.403,-0.9 -0.9,-0.9l-15.273,0l0,-1.845l15.273,0c0.497,0 0.9,-0.403 0.9,-0.9c0,-0.498 -0.403,-0.901 -0.9,-0.901l-15.273,0Zm-7.89,-0.566l2.161,-1.248l3.929,2.268l0,4.538l-3.929,2.269l-2.162,-1.248l1.282,-0.196c1.538,-0.237 2.654,-1.538 2.654,-3.093c0,-1.557 -1.116,-2.858 -2.654,-3.094l-1.281,-0.196Z" style="fill:#fff;fill-rule:nonzero;"/><path d="M37.237,40.848c3.089,0 5.603,-2.514 5.603,-5.604c0,-3.089 -2.514,-5.602 -5.603,-5.602c-3.089,0 -5.603,2.513 -5.603,5.602c0,3.09 2.514,5.604 5.603,5.604Zm0,-9.406c2.096,0 3.802,1.706 3.802,3.802c0,2.097 -1.706,3.803 -3.802,3.803c-2.097,0 -3.802,-1.706 -3.802,-3.803c0,-2.096 1.705,-3.802 3.802,-3.802Zm0,6.526c1.501,0 2.723,-1.222 2.723,-2.724c0,-1.501 -1.222,-2.722 -2.723,-2.722c-1.501,0 -2.723,1.221 -2.723,2.722c0,1.502 1.222,2.724 2.723,2.724Zm0,-3.646c0.508,0 0.922,0.413 0.922,0.922c0,0.509 -0.414,0.923 -0.922,0.923c-0.509,0 -0.922,-0.414 -0.922,-0.923c0,-0.509 0.413,-0.922 0.922,-0.922Zm-28.676,-10.738l1,-0c0.497,-0 0.9,0.403 0.9,0.9c0,0.497 -0.403,0.9 -0.9,0.9l-1,-0c-0.497,-0 -0.9,-0.403 -0.9,-0.9c0,-0.497 0.403,-0.9 0.9,-0.9Zm31.879,-0l1,-0c0.497,-0 0.9,0.403 0.9,0.9c0,0.497 -0.403,0.9 -0.9,0.9l-1,-0c-0.497,-0 -0.9,-0.403 -0.9,-0.9c0,-0.497 0.403,-0.9 0.9,-0.9Zm-4.679,-0l1.872,-0c0.497,-0 0.899,0.403 0.899,0.9c0,0.497 -0.402,0.9 -0.899,0.9l-1.872,-0c-0.497,-0 -0.899,-0.403 -0.899,-0.9c0,-0.497 0.402,-0.9 0.899,-0.9Zm-4.678,-0l1.871,-0c0.497,-0 0.9,0.403 0.9,0.9c0,0.497 -0.403,0.9 -0.9,0.9l-1.871,-0c-0.497,-0 -0.9,-0.403 -0.9,-0.9c0,-0.497 0.403,-0.9 0.9,-0.9Zm-4.679,-0l1.872,-0c0.497,-0 0.9,0.403 0.9,0.9c0,0.497 -0.403,0.9 -0.9,0.9l-1.872,-0c-0.497,-0 -0.9,-0.403 -0.9,-0.9c0,-0.497 0.403,-0.9 0.9,-0.9Zm-4.679,-0l1.871,-0c0.498,-0 0.9,0.403 0.9,0.9c0,0.497 -0.402,0.9 -0.9,0.9l-1.871,-0c-0.497,-0 -0.9,-0.403 -0.9,-0.9c0,-0.497 0.403,-0.9 0.9,-0.9Zm-4.678,-0l1.871,-0c0.497,-0 0.9,0.403 0.9,0.9c0,0.497 -0.403,0.9 -0.9,0.9l-1.871,-0c-0.497,-0 -0.9,-0.403 -0.9,-0.9c0,-0.497 0.403,-0.9 0.9,-0.9Zm-4.679,-0l1.872,-0c0.497,-0 0.899,0.403 0.899,0.9c0,0.497 -0.402,0.9 -0.899,0.9l-1.872,-0c-0.497,-0 -0.9,-0.403 -0.9,-0.9c0,-0.497 0.402,-0.9 0.9,-0.9Zm12.631,-8.285c3.462,-0 6.277,2.816 6.277,6.277c0,0.497 -0.403,0.9 -0.9,0.9c-0.497,-0 -0.9,-0.403 -0.9,-0.9c0,-2.468 -2.008,-4.476 -4.476,-4.476c-2.468,-0 -4.475,2.008 -4.475,4.476c0,0.497 -0.403,0.9 -0.9,0.9c-0.497,-0 -0.9,-0.403 -0.9,-0.9c0,-3.461 2.814,-6.277 6.274,-6.277Zm-1.994,-7.799l3.991,-0c0.497,-0 0.9,0.403 0.9,0.9l-0,2.433c0.931,0.249 1.82,0.617 2.655,1.098l1.719,-1.719c0.352,-0.352 0.921,-0.352 1.273,-0l2.821,2.821c0.352,0.351 0.352,0.922 0,1.273l-1.719,1.72c0.482,0.835 0.849,1.724 1.099,2.654l2.432,-0c0.498,-0 0.9,0.404 0.9,0.901l0,1.995c0,0.497 -0.402,0.9 -0.9,0.9c-0.497,-0 -0.899,-0.403 -0.899,-0.9l0,-1.095l-2.247,-0c-0.43,-0 -0.8,-0.305 -0.883,-0.725c-0.239,-1.208 -0.707,-2.337 -1.392,-3.36c-0.239,-0.357 -0.192,-0.833 0.112,-1.138l1.588,-1.588l-1.549,-1.549l-1.588,1.589c-0.304,0.303 -0.78,0.349 -1.137,0.111c-1.022,-0.685 -2.152,-1.152 -3.36,-1.392c-0.421,-0.083 -0.725,-0.453 -0.725,-0.882l0,-2.247l-2.191,-0l0,2.247c0,0.429 -0.304,0.799 -0.725,0.882c-1.208,0.24 -2.338,0.707 -3.36,1.392c-0.357,0.238 -0.834,0.192 -1.137,-0.111l-1.589,-1.589l-1.548,1.549l1.588,1.588c0.304,0.305 0.351,0.781 0.112,1.138c-0.685,1.023 -1.153,2.152 -1.392,3.36c-0.083,0.42 -0.453,0.725 -0.883,0.725l-2.247,-0l0,1.095c0,0.497 -0.402,0.9 -0.9,0.9c-0.497,-0 -0.899,-0.403 -0.899,-0.9l0,-1.995c0,-0.497 0.402,-0.901 0.899,-0.901l2.433,-0c0.25,-0.93 0.617,-1.819 1.099,-2.654l-1.72,-1.72c-0.351,-0.351 -0.351,-0.922 0,-1.273l2.822,-2.821c0.352,-0.352 0.921,-0.352 1.273,-0l1.719,1.719c0.835,-0.481 1.724,-0.849 2.655,-1.098l0,-2.433c0,-0.497 0.403,-0.9 0.9,-0.9Z" style="fill:#fff;fill-rule:nonzero;"/></svg>